<mxfile host="app.diagrams.net" modified="2024-04-24T14:45:04.348Z" agent="Mozilla/5.0 (Windows NT 10.0; Win64; x64) AppleWebKit/537.36 (KHTML, like Gecko) Chrome/124.0.0.0 Safari/537.36 Edg/124.0.0.0" etag="KvK4Cs_eY39yoNIyVMr8" version="24.2.8" type="device">
  <diagram name="Page-1" id="wWkT7Sd-vc0gB9i1Pxod">
    <mxGraphModel dx="2587" dy="962" grid="1" gridSize="10" guides="1" tooltips="1" connect="1" arrows="1" fold="1" page="1" pageScale="1" pageWidth="850" pageHeight="1100" math="0" shadow="0">
      <root>
        <mxCell id="0" />
        <mxCell id="1" parent="0" />
        <mxCell id="KpjEV-Iwp159X810K0ua-1" value="" style="ellipse;html=1;shape=startState;fillColor=#000000;strokeColor=#ff0000;" parent="1" vertex="1">
          <mxGeometry x="70" y="90" width="30" height="30" as="geometry" />
        </mxCell>
        <mxCell id="KpjEV-Iwp159X810K0ua-2" value="" style="edgeStyle=orthogonalEdgeStyle;html=1;verticalAlign=bottom;endArrow=open;endSize=8;strokeColor=#ff0000;rounded=0;" parent="1" source="KpjEV-Iwp159X810K0ua-1" edge="1">
          <mxGeometry relative="1" as="geometry">
            <mxPoint x="85" y="180" as="targetPoint" />
          </mxGeometry>
        </mxCell>
        <mxCell id="KpjEV-Iwp159X810K0ua-3" value="" style="ellipse;html=1;shape=endState;fillColor=#000000;strokeColor=#ff0000;" parent="1" vertex="1">
          <mxGeometry x="705" y="330" width="30" height="30" as="geometry" />
        </mxCell>
        <mxCell id="KpjEV-Iwp159X810K0ua-5" value="Nhập tài khoản, mật khẩu" style="rounded=0;whiteSpace=wrap;html=1;" parent="1" vertex="1">
          <mxGeometry x="30" y="180" width="120" height="60" as="geometry" />
        </mxCell>
        <mxCell id="KpjEV-Iwp159X810K0ua-6" value="" style="endArrow=classic;html=1;rounded=0;exitX=1.02;exitY=0.633;exitDx=0;exitDy=0;exitPerimeter=0;entryX=0;entryY=0.5;entryDx=0;entryDy=0;" parent="1" source="KpjEV-Iwp159X810K0ua-5" target="KpjEV-Iwp159X810K0ua-7" edge="1">
          <mxGeometry width="50" height="50" relative="1" as="geometry">
            <mxPoint x="180" y="240" as="sourcePoint" />
            <mxPoint x="230" y="190" as="targetPoint" />
          </mxGeometry>
        </mxCell>
        <mxCell id="KpjEV-Iwp159X810K0ua-7" value="Kiểm tra tài khoản,&lt;br&gt;mật khẩu" style="rhombus;whiteSpace=wrap;html=1;" parent="1" vertex="1">
          <mxGeometry x="230" y="170" width="140" height="90" as="geometry" />
        </mxCell>
        <mxCell id="KpjEV-Iwp159X810K0ua-8" value="" style="endArrow=classic;html=1;rounded=0;exitX=1;exitY=0.5;exitDx=0;exitDy=0;" parent="1" source="KpjEV-Iwp159X810K0ua-7" edge="1">
          <mxGeometry width="50" height="50" relative="1" as="geometry">
            <mxPoint x="400" y="230" as="sourcePoint" />
            <mxPoint x="460" y="215" as="targetPoint" />
          </mxGeometry>
        </mxCell>
        <mxCell id="KpjEV-Iwp159X810K0ua-9" value="Tài khoản, mật khẩu đúng" style="rounded=0;whiteSpace=wrap;html=1;" parent="1" vertex="1">
          <mxGeometry x="460" y="185" width="120" height="60" as="geometry" />
        </mxCell>
        <mxCell id="KpjEV-Iwp159X810K0ua-10" value="" style="endArrow=classic;html=1;rounded=0;exitX=1;exitY=0.5;exitDx=0;exitDy=0;" parent="1" source="KpjEV-Iwp159X810K0ua-9" edge="1">
          <mxGeometry width="50" height="50" relative="1" as="geometry">
            <mxPoint x="600" y="230" as="sourcePoint" />
            <mxPoint x="660" y="215" as="targetPoint" />
          </mxGeometry>
        </mxCell>
        <mxCell id="KpjEV-Iwp159X810K0ua-11" value="Chuyển đến màn hình chính" style="rounded=0;whiteSpace=wrap;html=1;" parent="1" vertex="1">
          <mxGeometry x="660" y="185" width="120" height="60" as="geometry" />
        </mxCell>
        <mxCell id="KpjEV-Iwp159X810K0ua-12" value="" style="endArrow=classic;html=1;rounded=0;exitX=0.5;exitY=1;exitDx=0;exitDy=0;entryX=0.5;entryY=0;entryDx=0;entryDy=0;" parent="1" source="KpjEV-Iwp159X810K0ua-11" target="KpjEV-Iwp159X810K0ua-3" edge="1">
          <mxGeometry width="50" height="50" relative="1" as="geometry">
            <mxPoint x="500" y="320" as="sourcePoint" />
            <mxPoint x="550" y="270" as="targetPoint" />
          </mxGeometry>
        </mxCell>
        <mxCell id="KpjEV-Iwp159X810K0ua-13" value="Tài khoản, mật khẩu sai" style="rounded=0;whiteSpace=wrap;html=1;" parent="1" vertex="1">
          <mxGeometry x="240" y="340" width="120" height="60" as="geometry" />
        </mxCell>
        <mxCell id="KpjEV-Iwp159X810K0ua-14" value="" style="endArrow=classic;html=1;rounded=0;exitX=0.5;exitY=1;exitDx=0;exitDy=0;entryX=0.5;entryY=0;entryDx=0;entryDy=0;" parent="1" source="KpjEV-Iwp159X810K0ua-7" target="KpjEV-Iwp159X810K0ua-13" edge="1">
          <mxGeometry width="50" height="50" relative="1" as="geometry">
            <mxPoint x="240" y="320" as="sourcePoint" />
            <mxPoint x="290" y="270" as="targetPoint" />
          </mxGeometry>
        </mxCell>
        <mxCell id="KpjEV-Iwp159X810K0ua-15" value="" style="endArrow=classic;html=1;rounded=0;exitX=0;exitY=0.5;exitDx=0;exitDy=0;entryX=0.447;entryY=1.02;entryDx=0;entryDy=0;entryPerimeter=0;" parent="1" source="KpjEV-Iwp159X810K0ua-13" target="KpjEV-Iwp159X810K0ua-5" edge="1">
          <mxGeometry width="50" height="50" relative="1" as="geometry">
            <mxPoint x="60" y="400" as="sourcePoint" />
            <mxPoint x="110" y="350" as="targetPoint" />
          </mxGeometry>
        </mxCell>
        <mxCell id="KpjEV-Iwp159X810K0ua-16" value="&lt;font style=&quot;font-size: 20px;&quot;&gt;&lt;b&gt;Sơ đồ hoạt động module đăng nhập&lt;/b&gt;&lt;/font&gt;" style="text;html=1;align=center;verticalAlign=middle;whiteSpace=wrap;rounded=0;" parent="1" vertex="1">
          <mxGeometry x="270" y="430" width="360" height="30" as="geometry" />
        </mxCell>
        <mxCell id="KpjEV-Iwp159X810K0ua-17" value="" style="ellipse;html=1;shape=startState;fillColor=#000000;strokeColor=#ff0000;" parent="1" vertex="1">
          <mxGeometry x="30" y="550" width="30" height="30" as="geometry" />
        </mxCell>
        <mxCell id="KpjEV-Iwp159X810K0ua-18" value="" style="edgeStyle=orthogonalEdgeStyle;html=1;verticalAlign=bottom;endArrow=open;endSize=8;strokeColor=#ff0000;rounded=0;" parent="1" source="KpjEV-Iwp159X810K0ua-17" edge="1">
          <mxGeometry relative="1" as="geometry">
            <mxPoint x="45" y="640" as="targetPoint" />
          </mxGeometry>
        </mxCell>
        <mxCell id="KpjEV-Iwp159X810K0ua-19" value="" style="ellipse;html=1;shape=endState;fillColor=#000000;strokeColor=#ff0000;" parent="1" vertex="1">
          <mxGeometry x="720" y="780" width="30" height="30" as="geometry" />
        </mxCell>
        <mxCell id="KpjEV-Iwp159X810K0ua-20" value="Nhập mật khẩu cũ và mới" style="rounded=0;whiteSpace=wrap;html=1;" parent="1" vertex="1">
          <mxGeometry x="10" y="640" width="120" height="60" as="geometry" />
        </mxCell>
        <mxCell id="KpjEV-Iwp159X810K0ua-22" value="" style="endArrow=classic;html=1;rounded=0;exitX=1.027;exitY=0.633;exitDx=0;exitDy=0;exitPerimeter=0;entryX=0;entryY=0.5;entryDx=0;entryDy=0;" parent="1" source="KpjEV-Iwp159X810K0ua-20" target="KpjEV-Iwp159X810K0ua-24" edge="1">
          <mxGeometry width="50" height="50" relative="1" as="geometry">
            <mxPoint x="140" y="710" as="sourcePoint" />
            <mxPoint x="250" y="718.9477257298031" as="targetPoint" />
          </mxGeometry>
        </mxCell>
        <mxCell id="KpjEV-Iwp159X810K0ua-23" value="" style="endArrow=classic;html=1;rounded=0;exitX=1;exitY=0.5;exitDx=0;exitDy=0;" parent="1" source="KpjEV-Iwp159X810K0ua-24" edge="1">
          <mxGeometry width="50" height="50" relative="1" as="geometry">
            <mxPoint x="370" y="740" as="sourcePoint" />
            <mxPoint x="420" y="680" as="targetPoint" />
          </mxGeometry>
        </mxCell>
        <mxCell id="KpjEV-Iwp159X810K0ua-24" value="KIểm tra mật khẩu&amp;nbsp;" style="rhombus;whiteSpace=wrap;html=1;" parent="1" vertex="1">
          <mxGeometry x="250" y="640" width="100" height="80" as="geometry" />
        </mxCell>
        <mxCell id="KpjEV-Iwp159X810K0ua-25" value="Mật khẩu đúng" style="rounded=0;whiteSpace=wrap;html=1;" parent="1" vertex="1">
          <mxGeometry x="420" y="650" width="120" height="60" as="geometry" />
        </mxCell>
        <mxCell id="KpjEV-Iwp159X810K0ua-26" value="Đổi mật khẩu" style="rounded=0;whiteSpace=wrap;html=1;" parent="1" vertex="1">
          <mxGeometry x="660" y="660" width="120" height="60" as="geometry" />
        </mxCell>
        <mxCell id="KpjEV-Iwp159X810K0ua-27" value="Mật khẩu sai" style="rounded=0;whiteSpace=wrap;html=1;" parent="1" vertex="1">
          <mxGeometry x="240" y="780" width="120" height="60" as="geometry" />
        </mxCell>
        <mxCell id="KpjEV-Iwp159X810K0ua-28" value="" style="endArrow=classic;html=1;rounded=0;exitX=0.5;exitY=1;exitDx=0;exitDy=0;entryX=0.5;entryY=0;entryDx=0;entryDy=0;" parent="1" source="KpjEV-Iwp159X810K0ua-24" target="KpjEV-Iwp159X810K0ua-27" edge="1">
          <mxGeometry width="50" height="50" relative="1" as="geometry">
            <mxPoint x="120" y="830" as="sourcePoint" />
            <mxPoint x="170" y="780" as="targetPoint" />
          </mxGeometry>
        </mxCell>
        <mxCell id="KpjEV-Iwp159X810K0ua-29" value="" style="endArrow=classic;html=1;rounded=0;exitX=1.017;exitY=0.627;exitDx=0;exitDy=0;exitPerimeter=0;entryX=0;entryY=0.5;entryDx=0;entryDy=0;" parent="1" source="KpjEV-Iwp159X810K0ua-25" target="KpjEV-Iwp159X810K0ua-26" edge="1">
          <mxGeometry width="50" height="50" relative="1" as="geometry">
            <mxPoint x="600" y="770" as="sourcePoint" />
            <mxPoint x="650" y="720" as="targetPoint" />
          </mxGeometry>
        </mxCell>
        <mxCell id="KpjEV-Iwp159X810K0ua-30" value="" style="endArrow=classic;html=1;rounded=0;exitX=0.603;exitY=1;exitDx=0;exitDy=0;exitPerimeter=0;entryX=0.5;entryY=0;entryDx=0;entryDy=0;" parent="1" source="KpjEV-Iwp159X810K0ua-26" target="KpjEV-Iwp159X810K0ua-19" edge="1">
          <mxGeometry width="50" height="50" relative="1" as="geometry">
            <mxPoint x="630" y="830" as="sourcePoint" />
            <mxPoint x="680" y="780" as="targetPoint" />
          </mxGeometry>
        </mxCell>
        <mxCell id="KpjEV-Iwp159X810K0ua-31" value="" style="endArrow=classic;html=1;rounded=0;exitX=0;exitY=0.5;exitDx=0;exitDy=0;entryX=0.5;entryY=1;entryDx=0;entryDy=0;" parent="1" source="KpjEV-Iwp159X810K0ua-27" target="KpjEV-Iwp159X810K0ua-20" edge="1">
          <mxGeometry width="50" height="50" relative="1" as="geometry">
            <mxPoint x="80" y="830" as="sourcePoint" />
            <mxPoint x="130" y="780" as="targetPoint" />
          </mxGeometry>
        </mxCell>
        <mxCell id="KpjEV-Iwp159X810K0ua-32" value="&lt;font style=&quot;font-size: 20px;&quot;&gt;&lt;b&gt;Sơ đồ hoạt động module đổi mật khẩu&lt;/b&gt;&lt;/font&gt;" style="text;html=1;align=center;verticalAlign=middle;whiteSpace=wrap;rounded=0;" parent="1" vertex="1">
          <mxGeometry x="160" y="870" width="510" height="30" as="geometry" />
        </mxCell>
        <mxCell id="KpjEV-Iwp159X810K0ua-33" value="" style="ellipse;html=1;shape=startState;fillColor=#000000;strokeColor=#ff0000;" parent="1" vertex="1">
          <mxGeometry x="30" y="1070" width="30" height="30" as="geometry" />
        </mxCell>
        <mxCell id="KpjEV-Iwp159X810K0ua-34" value="" style="edgeStyle=orthogonalEdgeStyle;html=1;verticalAlign=bottom;endArrow=open;endSize=8;strokeColor=#ff0000;rounded=0;" parent="1" source="KpjEV-Iwp159X810K0ua-33" edge="1">
          <mxGeometry relative="1" as="geometry">
            <mxPoint x="45" y="1160" as="targetPoint" />
          </mxGeometry>
        </mxCell>
        <mxCell id="KpjEV-Iwp159X810K0ua-35" value="" style="ellipse;html=1;shape=endState;fillColor=#000000;strokeColor=#ff0000;" parent="1" vertex="1">
          <mxGeometry x="600" y="1560" width="30" height="30" as="geometry" />
        </mxCell>
        <mxCell id="KpjEV-Iwp159X810K0ua-36" value="Chọn bàn" style="rounded=0;whiteSpace=wrap;html=1;" parent="1" vertex="1">
          <mxGeometry y="1160" width="120" height="60" as="geometry" />
        </mxCell>
        <mxCell id="KpjEV-Iwp159X810K0ua-38" value="" style="endArrow=classic;html=1;rounded=0;exitX=1;exitY=0.5;exitDx=0;exitDy=0;entryX=0;entryY=0.5;entryDx=0;entryDy=0;" parent="1" source="KpjEV-Iwp159X810K0ua-36" edge="1">
          <mxGeometry width="50" height="50" relative="1" as="geometry">
            <mxPoint x="140" y="1220" as="sourcePoint" />
            <mxPoint x="210" y="1190" as="targetPoint" />
          </mxGeometry>
        </mxCell>
        <mxCell id="KpjEV-Iwp159X810K0ua-39" value="Kiểm tra đơn đặt món" style="rhombus;whiteSpace=wrap;html=1;" parent="1" vertex="1">
          <mxGeometry x="210" y="1150" width="140" height="80" as="geometry" />
        </mxCell>
        <mxCell id="KpjEV-Iwp159X810K0ua-40" value="" style="endArrow=classic;html=1;rounded=0;exitX=0.5;exitY=0;exitDx=0;exitDy=0;entryX=0.5;entryY=1;entryDx=0;entryDy=0;" parent="1" source="KpjEV-Iwp159X810K0ua-39" target="KpjEV-Iwp159X810K0ua-41" edge="1">
          <mxGeometry width="50" height="50" relative="1" as="geometry">
            <mxPoint x="380" y="1200" as="sourcePoint" />
            <mxPoint x="420" y="1190" as="targetPoint" />
            <Array as="points" />
          </mxGeometry>
        </mxCell>
        <mxCell id="KpjEV-Iwp159X810K0ua-41" value="Chưa có đơn đặt món" style="rounded=0;whiteSpace=wrap;html=1;" parent="1" vertex="1">
          <mxGeometry x="225" y="1055" width="120" height="60" as="geometry" />
        </mxCell>
        <mxCell id="KpjEV-Iwp159X810K0ua-42" value="Chọn món" style="rounded=0;whiteSpace=wrap;html=1;" parent="1" vertex="1">
          <mxGeometry x="550" y="1055" width="120" height="60" as="geometry" />
        </mxCell>
        <mxCell id="KpjEV-Iwp159X810K0ua-43" value="" style="endArrow=classic;html=1;rounded=0;exitX=1;exitY=0.5;exitDx=0;exitDy=0;entryX=0;entryY=0.5;entryDx=0;entryDy=0;" parent="1" source="KpjEV-Iwp159X810K0ua-41" target="KpjEV-Iwp159X810K0ua-101" edge="1">
          <mxGeometry width="50" height="50" relative="1" as="geometry">
            <mxPoint x="545" y="1240.32" as="sourcePoint" />
            <mxPoint x="425" y="1080.32" as="targetPoint" />
          </mxGeometry>
        </mxCell>
        <mxCell id="KpjEV-Iwp159X810K0ua-45" value="Thông báo" style="rounded=0;whiteSpace=wrap;html=1;" parent="1" vertex="1">
          <mxGeometry x="555" y="1470" width="120" height="60" as="geometry" />
        </mxCell>
        <mxCell id="KpjEV-Iwp159X810K0ua-46" value="" style="endArrow=classic;html=1;rounded=0;exitX=0.5;exitY=1;exitDx=0;exitDy=0;entryX=0.5;entryY=0;entryDx=0;entryDy=0;" parent="1" source="KpjEV-Iwp159X810K0ua-45" target="KpjEV-Iwp159X810K0ua-35" edge="1">
          <mxGeometry width="50" height="50" relative="1" as="geometry">
            <mxPoint x="460" y="1530" as="sourcePoint" />
            <mxPoint x="510" y="1480" as="targetPoint" />
          </mxGeometry>
        </mxCell>
        <mxCell id="KpjEV-Iwp159X810K0ua-47" value="Đã có đơn đặt món" style="rounded=0;whiteSpace=wrap;html=1;" parent="1" vertex="1">
          <mxGeometry x="220" y="1270" width="120" height="60" as="geometry" />
        </mxCell>
        <mxCell id="KpjEV-Iwp159X810K0ua-48" value="" style="endArrow=classic;html=1;rounded=0;exitX=0.5;exitY=1;exitDx=0;exitDy=0;entryX=0.5;entryY=0;entryDx=0;entryDy=0;" parent="1" source="KpjEV-Iwp159X810K0ua-39" target="KpjEV-Iwp159X810K0ua-47" edge="1">
          <mxGeometry width="50" height="50" relative="1" as="geometry">
            <mxPoint x="140" y="1310" as="sourcePoint" />
            <mxPoint x="190" y="1260" as="targetPoint" />
          </mxGeometry>
        </mxCell>
        <mxCell id="KpjEV-Iwp159X810K0ua-50" value="Kiểm tra trạng thái đơn" style="rhombus;whiteSpace=wrap;html=1;" parent="1" vertex="1">
          <mxGeometry x="-15" y="1300" width="150" height="65" as="geometry" />
        </mxCell>
        <mxCell id="KpjEV-Iwp159X810K0ua-51" value="" style="endArrow=classic;html=1;rounded=0;exitX=0;exitY=0.5;exitDx=0;exitDy=0;entryX=0.5;entryY=0;entryDx=0;entryDy=0;" parent="1" source="KpjEV-Iwp159X810K0ua-47" target="KpjEV-Iwp159X810K0ua-50" edge="1">
          <mxGeometry width="50" height="50" relative="1" as="geometry">
            <mxPoint x="160" y="1400" as="sourcePoint" />
            <mxPoint x="210" y="1350" as="targetPoint" />
          </mxGeometry>
        </mxCell>
        <mxCell id="KpjEV-Iwp159X810K0ua-52" value="Đang chế biến/&lt;br&gt;Đã chế biến" style="rounded=0;whiteSpace=wrap;html=1;" parent="1" vertex="1">
          <mxGeometry x="220" y="1365" width="120" height="60" as="geometry" />
        </mxCell>
        <mxCell id="KpjEV-Iwp159X810K0ua-53" value="" style="endArrow=classic;html=1;rounded=0;exitX=0.5;exitY=1;exitDx=0;exitDy=0;entryX=0.5;entryY=0;entryDx=0;entryDy=0;" parent="1" source="KpjEV-Iwp159X810K0ua-50" target="KpjEV-Iwp159X810K0ua-54" edge="1">
          <mxGeometry width="50" height="50" relative="1" as="geometry">
            <mxPoint x="-27.5" y="1470" as="sourcePoint" />
            <mxPoint x="267.5" y="1555.5" as="targetPoint" />
          </mxGeometry>
        </mxCell>
        <mxCell id="KpjEV-Iwp159X810K0ua-54" value="Chưa chế biến" style="rounded=0;whiteSpace=wrap;html=1;" parent="1" vertex="1">
          <mxGeometry y="1479.98" width="120" height="60" as="geometry" />
        </mxCell>
        <mxCell id="KpjEV-Iwp159X810K0ua-55" value="" style="endArrow=classic;html=1;rounded=0;exitX=1;exitY=0.5;exitDx=0;exitDy=0;entryX=0;entryY=0.5;entryDx=0;entryDy=0;" parent="1" source="KpjEV-Iwp159X810K0ua-54" target="KpjEV-Iwp159X810K0ua-60" edge="1">
          <mxGeometry width="50" height="50" relative="1" as="geometry">
            <mxPoint x="177.5" y="1577.48" as="sourcePoint" />
            <mxPoint x="207.5" y="1557.48" as="targetPoint" />
          </mxGeometry>
        </mxCell>
        <mxCell id="KpjEV-Iwp159X810K0ua-56" value="" style="endArrow=classic;html=1;rounded=0;exitX=1;exitY=0.5;exitDx=0;exitDy=0;entryX=0;entryY=0.5;entryDx=0;entryDy=0;" parent="1" source="KpjEV-Iwp159X810K0ua-50" target="KpjEV-Iwp159X810K0ua-52" edge="1">
          <mxGeometry width="50" height="50" relative="1" as="geometry">
            <mxPoint x="90" y="1430" as="sourcePoint" />
            <mxPoint x="140" y="1380" as="targetPoint" />
            <Array as="points">
              <mxPoint x="200" y="1333" />
              <mxPoint x="200" y="1395" />
            </Array>
          </mxGeometry>
        </mxCell>
        <mxCell id="KpjEV-Iwp159X810K0ua-57" value="Tạo đơn đặt món mới" style="rounded=0;whiteSpace=wrap;html=1;" parent="1" vertex="1">
          <mxGeometry x="555" y="1280" width="120" height="60" as="geometry" />
        </mxCell>
        <mxCell id="KpjEV-Iwp159X810K0ua-59" value="" style="endArrow=classic;html=1;rounded=0;exitX=0.5;exitY=1;exitDx=0;exitDy=0;entryX=0.458;entryY=0;entryDx=0;entryDy=0;entryPerimeter=0;" parent="1" source="KpjEV-Iwp159X810K0ua-97" target="KpjEV-Iwp159X810K0ua-57" edge="1">
          <mxGeometry width="50" height="50" relative="1" as="geometry">
            <mxPoint x="355" y="1350" as="sourcePoint" />
            <mxPoint x="450" y="1360" as="targetPoint" />
          </mxGeometry>
        </mxCell>
        <mxCell id="KpjEV-Iwp159X810K0ua-60" value="Chỉnh sửa đơn đặt món" style="rounded=0;whiteSpace=wrap;html=1;" parent="1" vertex="1">
          <mxGeometry x="220" y="1479.98" width="120" height="60" as="geometry" />
        </mxCell>
        <mxCell id="KpjEV-Iwp159X810K0ua-62" value="&lt;font style=&quot;font-size: 20px;&quot;&gt;&lt;b&gt;Sơ đồ hoạt động module tạo đơn đặt món&lt;/b&gt;&lt;/font&gt;" style="text;html=1;align=center;verticalAlign=middle;whiteSpace=wrap;rounded=0;" parent="1" vertex="1">
          <mxGeometry x="120" y="1635" width="510" height="30" as="geometry" />
        </mxCell>
        <mxCell id="KpjEV-Iwp159X810K0ua-63" value="" style="ellipse;html=1;shape=startState;fillColor=#000000;strokeColor=#ff0000;" parent="1" vertex="1">
          <mxGeometry x="-25" y="1800" width="30" height="30" as="geometry" />
        </mxCell>
        <mxCell id="KpjEV-Iwp159X810K0ua-64" value="" style="edgeStyle=orthogonalEdgeStyle;html=1;verticalAlign=bottom;endArrow=open;endSize=8;strokeColor=#ff0000;rounded=0;" parent="1" source="KpjEV-Iwp159X810K0ua-63" edge="1">
          <mxGeometry relative="1" as="geometry">
            <mxPoint x="-10" y="1890" as="targetPoint" />
          </mxGeometry>
        </mxCell>
        <mxCell id="KpjEV-Iwp159X810K0ua-65" value="Chọn đơn đặt món" style="rounded=0;whiteSpace=wrap;html=1;" parent="1" vertex="1">
          <mxGeometry x="-70" y="1890" width="120" height="60" as="geometry" />
        </mxCell>
        <mxCell id="KpjEV-Iwp159X810K0ua-66" value="Chuyển trạng thái" style="rounded=0;whiteSpace=wrap;html=1;" parent="1" vertex="1">
          <mxGeometry x="140" y="1890" width="120" height="60" as="geometry" />
        </mxCell>
        <mxCell id="KpjEV-Iwp159X810K0ua-67" value="" style="endArrow=classic;html=1;rounded=0;exitX=1;exitY=0.5;exitDx=0;exitDy=0;entryX=0;entryY=0.5;entryDx=0;entryDy=0;" parent="1" source="KpjEV-Iwp159X810K0ua-65" target="KpjEV-Iwp159X810K0ua-66" edge="1">
          <mxGeometry width="50" height="50" relative="1" as="geometry">
            <mxPoint x="80" y="1940" as="sourcePoint" />
            <mxPoint x="130" y="1890" as="targetPoint" />
          </mxGeometry>
        </mxCell>
        <mxCell id="KpjEV-Iwp159X810K0ua-68" value="Kiểm tra trạng thái" style="rhombus;whiteSpace=wrap;html=1;" parent="1" vertex="1">
          <mxGeometry x="340" y="1880" width="130" height="80" as="geometry" />
        </mxCell>
        <mxCell id="KpjEV-Iwp159X810K0ua-69" value="" style="endArrow=classic;html=1;rounded=0;exitX=1;exitY=0.5;exitDx=0;exitDy=0;entryX=0;entryY=0.5;entryDx=0;entryDy=0;" parent="1" source="KpjEV-Iwp159X810K0ua-66" target="KpjEV-Iwp159X810K0ua-68" edge="1">
          <mxGeometry width="50" height="50" relative="1" as="geometry">
            <mxPoint x="290" y="1940" as="sourcePoint" />
            <mxPoint x="340" y="1890" as="targetPoint" />
          </mxGeometry>
        </mxCell>
        <mxCell id="KpjEV-Iwp159X810K0ua-70" value="Chưa chế biến" style="rounded=0;whiteSpace=wrap;html=1;" parent="1" vertex="1">
          <mxGeometry x="547.5" y="1900" width="120" height="40" as="geometry" />
        </mxCell>
        <mxCell id="KpjEV-Iwp159X810K0ua-71" value="" style="endArrow=classic;html=1;rounded=0;exitX=1;exitY=0.5;exitDx=0;exitDy=0;entryX=0;entryY=0.5;entryDx=0;entryDy=0;" parent="1" source="KpjEV-Iwp159X810K0ua-68" target="KpjEV-Iwp159X810K0ua-70" edge="1">
          <mxGeometry width="50" height="50" relative="1" as="geometry">
            <mxPoint x="500" y="1920" as="sourcePoint" />
            <mxPoint x="550" y="1870" as="targetPoint" />
          </mxGeometry>
        </mxCell>
        <mxCell id="KpjEV-Iwp159X810K0ua-72" value="Đang chế biến" style="rounded=0;whiteSpace=wrap;html=1;" parent="1" vertex="1">
          <mxGeometry x="547.5" y="1970" width="120" height="30" as="geometry" />
        </mxCell>
        <mxCell id="KpjEV-Iwp159X810K0ua-73" value="" style="endArrow=classic;html=1;rounded=0;exitX=0.5;exitY=1;exitDx=0;exitDy=0;entryX=0.5;entryY=0;entryDx=0;entryDy=0;" parent="1" source="KpjEV-Iwp159X810K0ua-70" target="KpjEV-Iwp159X810K0ua-72" edge="1">
          <mxGeometry width="50" height="50" relative="1" as="geometry">
            <mxPoint x="390" y="2050" as="sourcePoint" />
            <mxPoint x="440" y="2000" as="targetPoint" />
          </mxGeometry>
        </mxCell>
        <mxCell id="KpjEV-Iwp159X810K0ua-75" value="" style="endArrow=classic;html=1;rounded=0;entryX=0.5;entryY=0;entryDx=0;entryDy=0;exitX=0.521;exitY=1;exitDx=0;exitDy=0;exitPerimeter=0;" parent="1" source="KpjEV-Iwp159X810K0ua-93" target="KpjEV-Iwp159X810K0ua-82" edge="1">
          <mxGeometry width="50" height="50" relative="1" as="geometry">
            <mxPoint x="610" y="2090" as="sourcePoint" />
            <mxPoint x="610" y="2130" as="targetPoint" />
          </mxGeometry>
        </mxCell>
        <mxCell id="KpjEV-Iwp159X810K0ua-76" value="Đang chế biến" style="rounded=0;whiteSpace=wrap;html=1;" parent="1" vertex="1">
          <mxGeometry x="250" y="2020" width="120" height="60" as="geometry" />
        </mxCell>
        <mxCell id="KpjEV-Iwp159X810K0ua-77" value="" style="endArrow=classic;html=1;rounded=0;exitX=0.5;exitY=1;exitDx=0;exitDy=0;entryX=0.5;entryY=0;entryDx=0;entryDy=0;" parent="1" source="KpjEV-Iwp159X810K0ua-68" target="KpjEV-Iwp159X810K0ua-76" edge="1">
          <mxGeometry width="50" height="50" relative="1" as="geometry">
            <mxPoint x="260" y="2040" as="sourcePoint" />
            <mxPoint x="310" y="1990" as="targetPoint" />
          </mxGeometry>
        </mxCell>
        <mxCell id="KpjEV-Iwp159X810K0ua-78" value="Đã chế biến" style="rounded=0;whiteSpace=wrap;html=1;" parent="1" vertex="1">
          <mxGeometry x="180" y="2140" width="120" height="60" as="geometry" />
        </mxCell>
        <mxCell id="KpjEV-Iwp159X810K0ua-80" value="" style="endArrow=classic;html=1;rounded=0;entryX=0;entryY=0.5;entryDx=0;entryDy=0;" parent="1" target="KpjEV-Iwp159X810K0ua-82" edge="1">
          <mxGeometry width="50" height="50" relative="1" as="geometry">
            <mxPoint x="460" y="2170" as="sourcePoint" />
            <mxPoint x="550" y="2170" as="targetPoint" />
          </mxGeometry>
        </mxCell>
        <mxCell id="KpjEV-Iwp159X810K0ua-81" value="" style="endArrow=classic;html=1;rounded=0;exitX=0.5;exitY=1;exitDx=0;exitDy=0;entryX=0.555;entryY=-0.036;entryDx=0;entryDy=0;entryPerimeter=0;" parent="1" source="KpjEV-Iwp159X810K0ua-76" target="KpjEV-Iwp159X810K0ua-78" edge="1">
          <mxGeometry width="50" height="50" relative="1" as="geometry">
            <mxPoint x="260" y="2130" as="sourcePoint" />
            <mxPoint x="310" y="2080" as="targetPoint" />
          </mxGeometry>
        </mxCell>
        <mxCell id="KpjEV-Iwp159X810K0ua-82" value="Thông báo" style="rhombus;whiteSpace=wrap;html=1;" parent="1" vertex="1">
          <mxGeometry x="535" y="2130" width="150" height="80" as="geometry" />
        </mxCell>
        <mxCell id="KpjEV-Iwp159X810K0ua-83" value="" style="ellipse;html=1;shape=endState;fillColor=#000000;strokeColor=#ff0000;" parent="1" vertex="1">
          <mxGeometry x="770" y="2155" width="30" height="30" as="geometry" />
        </mxCell>
        <mxCell id="KpjEV-Iwp159X810K0ua-84" value="" style="endArrow=classic;html=1;rounded=0;exitX=1;exitY=0.5;exitDx=0;exitDy=0;entryX=0;entryY=0.5;entryDx=0;entryDy=0;" parent="1" source="KpjEV-Iwp159X810K0ua-82" target="KpjEV-Iwp159X810K0ua-83" edge="1">
          <mxGeometry width="50" height="50" relative="1" as="geometry">
            <mxPoint x="710" y="2160" as="sourcePoint" />
            <mxPoint x="760" y="2110" as="targetPoint" />
          </mxGeometry>
        </mxCell>
        <mxCell id="KpjEV-Iwp159X810K0ua-85" value="&lt;font style=&quot;font-size: 20px;&quot;&gt;&lt;b&gt;Sơ đồ hoạt động module chuyển trạng thái đơn đặt món&lt;/b&gt;&lt;/font&gt;" style="text;html=1;align=center;verticalAlign=middle;whiteSpace=wrap;rounded=0;" parent="1" vertex="1">
          <mxGeometry x="60" y="2230" width="580" height="30" as="geometry" />
        </mxCell>
        <mxCell id="KpjEV-Iwp159X810K0ua-86" value="" style="ellipse;html=1;shape=startState;fillColor=#000000;strokeColor=#ff0000;" parent="1" vertex="1">
          <mxGeometry x="90" y="2420" width="30" height="30" as="geometry" />
        </mxCell>
        <mxCell id="KpjEV-Iwp159X810K0ua-87" value="" style="edgeStyle=orthogonalEdgeStyle;html=1;verticalAlign=bottom;endArrow=open;endSize=8;strokeColor=#ff0000;rounded=0;" parent="1" source="KpjEV-Iwp159X810K0ua-86" edge="1">
          <mxGeometry relative="1" as="geometry">
            <mxPoint x="105" y="2500" as="targetPoint" />
          </mxGeometry>
        </mxCell>
        <mxCell id="KpjEV-Iwp159X810K0ua-88" value="Chọn bàn" style="rounded=0;whiteSpace=wrap;html=1;" parent="1" vertex="1">
          <mxGeometry x="60" y="2500" width="90" height="40" as="geometry" />
        </mxCell>
        <mxCell id="KpjEV-Iwp159X810K0ua-89" value="Xác nhận thanh toán&amp;nbsp;" style="rounded=0;whiteSpace=wrap;html=1;" parent="1" vertex="1">
          <mxGeometry x="190" y="2495" width="120" height="50" as="geometry" />
        </mxCell>
        <mxCell id="KpjEV-Iwp159X810K0ua-93" value="Tạo/Cập nhật hóa đơn" style="rounded=0;whiteSpace=wrap;html=1;" parent="1" vertex="1">
          <mxGeometry x="547.5" y="2030" width="120" height="50" as="geometry" />
        </mxCell>
        <mxCell id="KpjEV-Iwp159X810K0ua-94" value="Chuyển trạng thái bàn" style="rounded=0;whiteSpace=wrap;html=1;" parent="1" vertex="1">
          <mxGeometry x="560" y="1380" width="120" height="60" as="geometry" />
        </mxCell>
        <mxCell id="KpjEV-Iwp159X810K0ua-96" value="" style="endArrow=classic;html=1;rounded=0;exitX=0.5;exitY=1;exitDx=0;exitDy=0;entryX=0.542;entryY=0;entryDx=0;entryDy=0;entryPerimeter=0;" parent="1" source="KpjEV-Iwp159X810K0ua-94" target="KpjEV-Iwp159X810K0ua-45" edge="1">
          <mxGeometry width="50" height="50" relative="1" as="geometry">
            <mxPoint x="715" y="1460" as="sourcePoint" />
            <mxPoint x="765" y="1410" as="targetPoint" />
          </mxGeometry>
        </mxCell>
        <mxCell id="KpjEV-Iwp159X810K0ua-97" value="Cập nhật số lượng món" style="rounded=0;whiteSpace=wrap;html=1;" parent="1" vertex="1">
          <mxGeometry x="550" y="1170" width="120" height="50" as="geometry" />
        </mxCell>
        <mxCell id="KpjEV-Iwp159X810K0ua-98" value="" style="endArrow=classic;html=1;rounded=0;exitX=0.5;exitY=1;exitDx=0;exitDy=0;entryX=0.5;entryY=0;entryDx=0;entryDy=0;" parent="1" source="KpjEV-Iwp159X810K0ua-42" target="KpjEV-Iwp159X810K0ua-97" edge="1">
          <mxGeometry width="50" height="50" relative="1" as="geometry">
            <mxPoint x="450" y="1300.32" as="sourcePoint" />
            <mxPoint x="610.6400000000003" y="1129.67" as="targetPoint" />
          </mxGeometry>
        </mxCell>
        <mxCell id="KpjEV-Iwp159X810K0ua-99" value="" style="endArrow=classic;html=1;rounded=0;exitX=1;exitY=0.583;exitDx=0;exitDy=0;entryX=0.5;entryY=1;entryDx=0;entryDy=0;exitPerimeter=0;" parent="1" source="KpjEV-Iwp159X810K0ua-52" target="KpjEV-Iwp159X810K0ua-101" edge="1">
          <mxGeometry width="50" height="50" relative="1" as="geometry">
            <mxPoint x="370" y="1390" as="sourcePoint" />
            <mxPoint x="380" y="1180" as="targetPoint" />
            <Array as="points">
              <mxPoint x="450" y="1400" />
            </Array>
          </mxGeometry>
        </mxCell>
        <mxCell id="KpjEV-Iwp159X810K0ua-101" value="" style="rhombus;whiteSpace=wrap;html=1;" parent="1" vertex="1">
          <mxGeometry x="402.5" y="1065" width="95" height="40" as="geometry" />
        </mxCell>
        <mxCell id="KpjEV-Iwp159X810K0ua-102" value="" style="endArrow=classic;html=1;rounded=0;exitX=1;exitY=0.5;exitDx=0;exitDy=0;entryX=0;entryY=0.5;entryDx=0;entryDy=0;" parent="1" source="KpjEV-Iwp159X810K0ua-101" target="KpjEV-Iwp159X810K0ua-42" edge="1">
          <mxGeometry width="50" height="50" relative="1" as="geometry">
            <mxPoint x="555" y="1190.32" as="sourcePoint" />
            <mxPoint x="605" y="1140.32" as="targetPoint" />
          </mxGeometry>
        </mxCell>
        <mxCell id="KpjEV-Iwp159X810K0ua-103" value="" style="endArrow=classic;html=1;rounded=0;exitX=0.5;exitY=1;exitDx=0;exitDy=0;entryX=0.5;entryY=0;entryDx=0;entryDy=0;" parent="1" source="KpjEV-Iwp159X810K0ua-57" target="KpjEV-Iwp159X810K0ua-94" edge="1">
          <mxGeometry width="50" height="50" relative="1" as="geometry">
            <mxPoint x="425" y="1410" as="sourcePoint" />
            <mxPoint x="680" y="1270" as="targetPoint" />
          </mxGeometry>
        </mxCell>
        <mxCell id="KpjEV-Iwp159X810K0ua-105" value="" style="endArrow=classic;html=1;rounded=0;exitX=1;exitY=0.5;exitDx=0;exitDy=0;entryX=0;entryY=0.5;entryDx=0;entryDy=0;" parent="1" source="KpjEV-Iwp159X810K0ua-88" target="KpjEV-Iwp159X810K0ua-89" edge="1">
          <mxGeometry width="50" height="50" relative="1" as="geometry">
            <mxPoint x="150" y="2670" as="sourcePoint" />
            <mxPoint x="200" y="2620" as="targetPoint" />
          </mxGeometry>
        </mxCell>
        <mxCell id="KpjEV-Iwp159X810K0ua-106" value="Chuyển trạng thái bàn" style="rounded=0;whiteSpace=wrap;html=1;" parent="1" vertex="1">
          <mxGeometry x="350" y="2495" width="120" height="50" as="geometry" />
        </mxCell>
        <mxCell id="KpjEV-Iwp159X810K0ua-107" value="" style="endArrow=classic;html=1;rounded=0;exitX=1;exitY=0.5;exitDx=0;exitDy=0;entryX=0;entryY=0.5;entryDx=0;entryDy=0;" parent="1" source="KpjEV-Iwp159X810K0ua-89" target="KpjEV-Iwp159X810K0ua-106" edge="1">
          <mxGeometry width="50" height="50" relative="1" as="geometry">
            <mxPoint x="329.9999999999998" y="2515" as="sourcePoint" />
            <mxPoint x="380" y="2520" as="targetPoint" />
          </mxGeometry>
        </mxCell>
        <mxCell id="KpjEV-Iwp159X810K0ua-108" value="Xóa đơn đặt món liên quan đến bàn" style="rounded=0;whiteSpace=wrap;html=1;" parent="1" vertex="1">
          <mxGeometry x="510" y="2490" width="120" height="60" as="geometry" />
        </mxCell>
        <mxCell id="KpjEV-Iwp159X810K0ua-109" value="" style="endArrow=classic;html=1;rounded=0;exitX=1;exitY=0.5;exitDx=0;exitDy=0;entryX=0;entryY=0.5;entryDx=0;entryDy=0;" parent="1" source="KpjEV-Iwp159X810K0ua-106" target="KpjEV-Iwp159X810K0ua-108" edge="1">
          <mxGeometry width="50" height="50" relative="1" as="geometry">
            <mxPoint x="500" y="2540" as="sourcePoint" />
            <mxPoint x="550" y="2490" as="targetPoint" />
          </mxGeometry>
        </mxCell>
        <mxCell id="KpjEV-Iwp159X810K0ua-110" value="" style="endArrow=classic;html=1;rounded=0;exitX=1;exitY=0.5;exitDx=0;exitDy=0;" parent="1" source="KpjEV-Iwp159X810K0ua-60" edge="1">
          <mxGeometry width="50" height="50" relative="1" as="geometry">
            <mxPoint x="380" y="1530" as="sourcePoint" />
            <mxPoint x="550" y="1510" as="targetPoint" />
          </mxGeometry>
        </mxCell>
        <mxCell id="KpjEV-Iwp159X810K0ua-111" value="Thông báo" style="rounded=0;whiteSpace=wrap;html=1;" parent="1" vertex="1">
          <mxGeometry x="670" y="2502.5" width="80" height="35" as="geometry" />
        </mxCell>
        <mxCell id="KpjEV-Iwp159X810K0ua-112" value="" style="endArrow=classic;html=1;rounded=0;exitX=1;exitY=0.5;exitDx=0;exitDy=0;exitPerimeter=0;entryX=0;entryY=0.5;entryDx=0;entryDy=0;" parent="1" source="KpjEV-Iwp159X810K0ua-108" target="KpjEV-Iwp159X810K0ua-111" edge="1">
          <mxGeometry width="50" height="50" relative="1" as="geometry">
            <mxPoint x="640" y="2530" as="sourcePoint" />
            <mxPoint x="690" y="2480" as="targetPoint" />
          </mxGeometry>
        </mxCell>
        <mxCell id="KpjEV-Iwp159X810K0ua-113" value="" style="ellipse;html=1;shape=endState;fillColor=#000000;strokeColor=#ff0000;" parent="1" vertex="1">
          <mxGeometry x="820" y="2505" width="30" height="30" as="geometry" />
        </mxCell>
        <mxCell id="KpjEV-Iwp159X810K0ua-114" value="" style="endArrow=classic;html=1;rounded=0;exitX=1;exitY=0.5;exitDx=0;exitDy=0;entryX=0;entryY=0.5;entryDx=0;entryDy=0;" parent="1" source="KpjEV-Iwp159X810K0ua-111" target="KpjEV-Iwp159X810K0ua-113" edge="1">
          <mxGeometry width="50" height="50" relative="1" as="geometry">
            <mxPoint x="770" y="2530" as="sourcePoint" />
            <mxPoint x="820" y="2480" as="targetPoint" />
          </mxGeometry>
        </mxCell>
        <mxCell id="KpjEV-Iwp159X810K0ua-115" value="&lt;font style=&quot;font-size: 20px;&quot;&gt;&lt;b&gt;Sơ đồ hoạt động module xác nhận thanh toán&lt;/b&gt;&lt;/font&gt;" style="text;html=1;align=center;verticalAlign=middle;whiteSpace=wrap;rounded=0;" parent="1" vertex="1">
          <mxGeometry x="140" y="2580" width="580" height="30" as="geometry" />
        </mxCell>
        <mxCell id="KpjEV-Iwp159X810K0ua-116" value="" style="ellipse;html=1;shape=startState;fillColor=#000000;strokeColor=#ff0000;" parent="1" vertex="1">
          <mxGeometry x="70" y="2810" width="30" height="30" as="geometry" />
        </mxCell>
        <mxCell id="KpjEV-Iwp159X810K0ua-117" value="" style="edgeStyle=orthogonalEdgeStyle;html=1;verticalAlign=bottom;endArrow=open;endSize=8;strokeColor=#ff0000;rounded=0;" parent="1" source="KpjEV-Iwp159X810K0ua-116" edge="1">
          <mxGeometry relative="1" as="geometry">
            <mxPoint x="85" y="2880" as="targetPoint" />
          </mxGeometry>
        </mxCell>
        <mxCell id="KpjEV-Iwp159X810K0ua-118" value="Nhập thông tin tài khoản" style="rounded=0;whiteSpace=wrap;html=1;" parent="1" vertex="1">
          <mxGeometry x="30" y="2880" width="120" height="40" as="geometry" />
        </mxCell>
        <mxCell id="KpjEV-Iwp159X810K0ua-119" value="Hợp lệ" style="rounded=0;whiteSpace=wrap;html=1;" parent="1" vertex="1">
          <mxGeometry x="440" y="2885" width="70" height="30" as="geometry" />
        </mxCell>
        <mxCell id="KpjEV-Iwp159X810K0ua-120" value="Kiểm tra tính hợp lệ" style="rhombus;whiteSpace=wrap;html=1;" parent="1" vertex="1">
          <mxGeometry x="220" y="2870" width="140" height="60" as="geometry" />
        </mxCell>
        <mxCell id="KpjEV-Iwp159X810K0ua-121" value="" style="endArrow=classic;html=1;rounded=0;exitX=1;exitY=0.5;exitDx=0;exitDy=0;entryX=0;entryY=0.5;entryDx=0;entryDy=0;" parent="1" source="KpjEV-Iwp159X810K0ua-118" target="KpjEV-Iwp159X810K0ua-120" edge="1">
          <mxGeometry width="50" height="50" relative="1" as="geometry">
            <mxPoint x="150" y="2920" as="sourcePoint" />
            <mxPoint x="200" y="2870" as="targetPoint" />
          </mxGeometry>
        </mxCell>
        <mxCell id="KpjEV-Iwp159X810K0ua-122" value="Không hợp lệ" style="rounded=0;whiteSpace=wrap;html=1;" parent="1" vertex="1">
          <mxGeometry x="242.5" y="2980" width="95" height="30" as="geometry" />
        </mxCell>
        <mxCell id="KpjEV-Iwp159X810K0ua-123" value="" style="endArrow=classic;html=1;rounded=0;exitX=0.5;exitY=1;exitDx=0;exitDy=0;entryX=0.5;entryY=0;entryDx=0;entryDy=0;" parent="1" source="KpjEV-Iwp159X810K0ua-120" target="KpjEV-Iwp159X810K0ua-122" edge="1">
          <mxGeometry width="50" height="50" relative="1" as="geometry">
            <mxPoint x="170" y="2970" as="sourcePoint" />
            <mxPoint x="220" y="2920" as="targetPoint" />
          </mxGeometry>
        </mxCell>
        <mxCell id="KpjEV-Iwp159X810K0ua-124" value="" style="endArrow=classic;html=1;rounded=0;entryX=0.41;entryY=1.061;entryDx=0;entryDy=0;entryPerimeter=0;" parent="1" target="KpjEV-Iwp159X810K0ua-118" edge="1">
          <mxGeometry width="50" height="50" relative="1" as="geometry">
            <mxPoint x="240" y="2990" as="sourcePoint" />
            <mxPoint x="80" y="2990" as="targetPoint" />
          </mxGeometry>
        </mxCell>
        <mxCell id="KpjEV-Iwp159X810K0ua-125" value="" style="endArrow=classic;html=1;rounded=0;exitX=1;exitY=0.5;exitDx=0;exitDy=0;entryX=-0.065;entryY=0.486;entryDx=0;entryDy=0;entryPerimeter=0;" parent="1" source="KpjEV-Iwp159X810K0ua-120" target="KpjEV-Iwp159X810K0ua-119" edge="1">
          <mxGeometry width="50" height="50" relative="1" as="geometry">
            <mxPoint x="380" y="2910" as="sourcePoint" />
            <mxPoint x="430" y="2860" as="targetPoint" />
          </mxGeometry>
        </mxCell>
        <mxCell id="KpjEV-Iwp159X810K0ua-126" value="Tạo tài khoản" style="rounded=0;whiteSpace=wrap;html=1;" parent="1" vertex="1">
          <mxGeometry x="575" y="2885" width="80" height="30" as="geometry" />
        </mxCell>
        <mxCell id="KpjEV-Iwp159X810K0ua-127" value="" style="endArrow=classic;html=1;rounded=0;" parent="1" source="KpjEV-Iwp159X810K0ua-119" edge="1">
          <mxGeometry width="50" height="50" relative="1" as="geometry">
            <mxPoint x="510" y="2950" as="sourcePoint" />
            <mxPoint x="580.7106781186548" y="2900" as="targetPoint" />
          </mxGeometry>
        </mxCell>
        <mxCell id="KpjEV-Iwp159X810K0ua-128" value="" style="ellipse;html=1;shape=endState;fillColor=#000000;strokeColor=#ff0000;" parent="1" vertex="1">
          <mxGeometry x="600" y="2960" width="30" height="30" as="geometry" />
        </mxCell>
        <mxCell id="KpjEV-Iwp159X810K0ua-129" value="" style="endArrow=classic;html=1;rounded=0;exitX=0.5;exitY=1;exitDx=0;exitDy=0;entryX=0.5;entryY=0;entryDx=0;entryDy=0;" parent="1" source="KpjEV-Iwp159X810K0ua-126" target="KpjEV-Iwp159X810K0ua-128" edge="1">
          <mxGeometry width="50" height="50" relative="1" as="geometry">
            <mxPoint x="530" y="2980" as="sourcePoint" />
            <mxPoint x="580" y="2930" as="targetPoint" />
          </mxGeometry>
        </mxCell>
        <mxCell id="KpjEV-Iwp159X810K0ua-130" value="&lt;font style=&quot;font-size: 20px;&quot;&gt;&lt;b&gt;Sơ đồ hoạt động module tạo tài khoản&lt;/b&gt;&lt;/font&gt;" style="text;html=1;align=center;verticalAlign=middle;whiteSpace=wrap;rounded=0;" parent="1" vertex="1">
          <mxGeometry x="100" y="3050" width="580" height="30" as="geometry" />
        </mxCell>
        <mxCell id="KpjEV-Iwp159X810K0ua-131" value="" style="ellipse;html=1;shape=startState;fillColor=#000000;strokeColor=#ff0000;" parent="1" vertex="1">
          <mxGeometry x="80" y="3190" width="30" height="30" as="geometry" />
        </mxCell>
        <mxCell id="KpjEV-Iwp159X810K0ua-132" value="" style="edgeStyle=orthogonalEdgeStyle;html=1;verticalAlign=bottom;endArrow=open;endSize=8;strokeColor=#ff0000;rounded=0;" parent="1" source="KpjEV-Iwp159X810K0ua-131" edge="1">
          <mxGeometry relative="1" as="geometry">
            <mxPoint x="95" y="3260" as="targetPoint" />
          </mxGeometry>
        </mxCell>
        <mxCell id="KpjEV-Iwp159X810K0ua-133" value="Nhập thông tin tài khoản" style="rounded=0;whiteSpace=wrap;html=1;" parent="1" vertex="1">
          <mxGeometry x="40" y="3260" width="120" height="40" as="geometry" />
        </mxCell>
        <mxCell id="KpjEV-Iwp159X810K0ua-134" value="Hợp lệ" style="rounded=0;whiteSpace=wrap;html=1;" parent="1" vertex="1">
          <mxGeometry x="450" y="3265" width="70" height="30" as="geometry" />
        </mxCell>
        <mxCell id="KpjEV-Iwp159X810K0ua-135" value="Kiểm tra tính hợp lệ" style="rhombus;whiteSpace=wrap;html=1;" parent="1" vertex="1">
          <mxGeometry x="230" y="3250" width="140" height="60" as="geometry" />
        </mxCell>
        <mxCell id="KpjEV-Iwp159X810K0ua-136" value="" style="endArrow=classic;html=1;rounded=0;exitX=1;exitY=0.5;exitDx=0;exitDy=0;entryX=0;entryY=0.5;entryDx=0;entryDy=0;" parent="1" source="KpjEV-Iwp159X810K0ua-133" target="KpjEV-Iwp159X810K0ua-135" edge="1">
          <mxGeometry width="50" height="50" relative="1" as="geometry">
            <mxPoint x="160" y="3300" as="sourcePoint" />
            <mxPoint x="210" y="3250" as="targetPoint" />
          </mxGeometry>
        </mxCell>
        <mxCell id="KpjEV-Iwp159X810K0ua-137" value="Không hợp lệ" style="rounded=0;whiteSpace=wrap;html=1;" parent="1" vertex="1">
          <mxGeometry x="252.5" y="3360" width="95" height="30" as="geometry" />
        </mxCell>
        <mxCell id="KpjEV-Iwp159X810K0ua-138" value="" style="endArrow=classic;html=1;rounded=0;exitX=0.5;exitY=1;exitDx=0;exitDy=0;entryX=0.5;entryY=0;entryDx=0;entryDy=0;" parent="1" source="KpjEV-Iwp159X810K0ua-135" target="KpjEV-Iwp159X810K0ua-137" edge="1">
          <mxGeometry width="50" height="50" relative="1" as="geometry">
            <mxPoint x="180" y="3350" as="sourcePoint" />
            <mxPoint x="230" y="3300" as="targetPoint" />
          </mxGeometry>
        </mxCell>
        <mxCell id="KpjEV-Iwp159X810K0ua-139" value="" style="endArrow=classic;html=1;rounded=0;entryX=0.41;entryY=1.061;entryDx=0;entryDy=0;entryPerimeter=0;" parent="1" target="KpjEV-Iwp159X810K0ua-133" edge="1">
          <mxGeometry width="50" height="50" relative="1" as="geometry">
            <mxPoint x="250" y="3370" as="sourcePoint" />
            <mxPoint x="90" y="3370" as="targetPoint" />
          </mxGeometry>
        </mxCell>
        <mxCell id="KpjEV-Iwp159X810K0ua-140" value="" style="endArrow=classic;html=1;rounded=0;exitX=1;exitY=0.5;exitDx=0;exitDy=0;entryX=-0.065;entryY=0.486;entryDx=0;entryDy=0;entryPerimeter=0;" parent="1" source="KpjEV-Iwp159X810K0ua-135" target="KpjEV-Iwp159X810K0ua-134" edge="1">
          <mxGeometry width="50" height="50" relative="1" as="geometry">
            <mxPoint x="390" y="3290" as="sourcePoint" />
            <mxPoint x="440" y="3240" as="targetPoint" />
          </mxGeometry>
        </mxCell>
        <mxCell id="KpjEV-Iwp159X810K0ua-141" value="Chỉnh sửa tài khoản" style="rounded=0;whiteSpace=wrap;html=1;" parent="1" vertex="1">
          <mxGeometry x="585" y="3265" width="135" height="30" as="geometry" />
        </mxCell>
        <mxCell id="KpjEV-Iwp159X810K0ua-142" value="" style="endArrow=classic;html=1;rounded=0;" parent="1" source="KpjEV-Iwp159X810K0ua-134" edge="1">
          <mxGeometry width="50" height="50" relative="1" as="geometry">
            <mxPoint x="520" y="3330" as="sourcePoint" />
            <mxPoint x="590.7106781186548" y="3280" as="targetPoint" />
          </mxGeometry>
        </mxCell>
        <mxCell id="KpjEV-Iwp159X810K0ua-143" value="" style="ellipse;html=1;shape=endState;fillColor=#000000;strokeColor=#ff0000;" parent="1" vertex="1">
          <mxGeometry x="637.5" y="3350" width="30" height="30" as="geometry" />
        </mxCell>
        <mxCell id="KpjEV-Iwp159X810K0ua-144" value="" style="endArrow=classic;html=1;rounded=0;exitX=0.5;exitY=1;exitDx=0;exitDy=0;entryX=0.5;entryY=0;entryDx=0;entryDy=0;" parent="1" source="KpjEV-Iwp159X810K0ua-141" target="KpjEV-Iwp159X810K0ua-143" edge="1">
          <mxGeometry width="50" height="50" relative="1" as="geometry">
            <mxPoint x="540" y="3360" as="sourcePoint" />
            <mxPoint x="590" y="3310" as="targetPoint" />
          </mxGeometry>
        </mxCell>
        <mxCell id="KpjEV-Iwp159X810K0ua-145" value="&lt;font style=&quot;font-size: 20px;&quot;&gt;&lt;b&gt;Sơ đồ hoạt động module chỉnh sửa tài khoản&lt;/b&gt;&lt;/font&gt;" style="text;html=1;align=center;verticalAlign=middle;whiteSpace=wrap;rounded=0;" parent="1" vertex="1">
          <mxGeometry x="110" y="3430" width="580" height="30" as="geometry" />
        </mxCell>
        <mxCell id="KpjEV-Iwp159X810K0ua-146" value="" style="ellipse;html=1;shape=startState;fillColor=#000000;strokeColor=#ff0000;" parent="1" vertex="1">
          <mxGeometry x="70" y="3580" width="30" height="30" as="geometry" />
        </mxCell>
        <mxCell id="KpjEV-Iwp159X810K0ua-147" value="" style="edgeStyle=orthogonalEdgeStyle;html=1;verticalAlign=bottom;endArrow=open;endSize=8;strokeColor=#ff0000;rounded=0;" parent="1" source="KpjEV-Iwp159X810K0ua-146" edge="1">
          <mxGeometry relative="1" as="geometry">
            <mxPoint x="85" y="3650" as="targetPoint" />
          </mxGeometry>
        </mxCell>
        <mxCell id="KpjEV-Iwp159X810K0ua-148" value="Chọn tài khoản" style="rounded=0;whiteSpace=wrap;html=1;" parent="1" vertex="1">
          <mxGeometry x="30" y="3650" width="120" height="40" as="geometry" />
        </mxCell>
        <mxCell id="KpjEV-Iwp159X810K0ua-149" value="Xóa" style="rounded=0;whiteSpace=wrap;html=1;" parent="1" vertex="1">
          <mxGeometry x="440" y="3655" width="70" height="30" as="geometry" />
        </mxCell>
        <mxCell id="KpjEV-Iwp159X810K0ua-150" value="Xác nhận" style="rhombus;whiteSpace=wrap;html=1;" parent="1" vertex="1">
          <mxGeometry x="220" y="3640" width="140" height="60" as="geometry" />
        </mxCell>
        <mxCell id="KpjEV-Iwp159X810K0ua-151" value="" style="endArrow=classic;html=1;rounded=0;exitX=1;exitY=0.5;exitDx=0;exitDy=0;entryX=0;entryY=0.5;entryDx=0;entryDy=0;" parent="1" source="KpjEV-Iwp159X810K0ua-148" target="KpjEV-Iwp159X810K0ua-150" edge="1">
          <mxGeometry width="50" height="50" relative="1" as="geometry">
            <mxPoint x="150" y="3690" as="sourcePoint" />
            <mxPoint x="200" y="3640" as="targetPoint" />
          </mxGeometry>
        </mxCell>
        <mxCell id="KpjEV-Iwp159X810K0ua-152" value="Hủy" style="rounded=0;whiteSpace=wrap;html=1;" parent="1" vertex="1">
          <mxGeometry x="242.5" y="3750" width="95" height="30" as="geometry" />
        </mxCell>
        <mxCell id="KpjEV-Iwp159X810K0ua-153" value="" style="endArrow=classic;html=1;rounded=0;exitX=0.5;exitY=1;exitDx=0;exitDy=0;entryX=0.5;entryY=0;entryDx=0;entryDy=0;" parent="1" source="KpjEV-Iwp159X810K0ua-150" target="KpjEV-Iwp159X810K0ua-152" edge="1">
          <mxGeometry width="50" height="50" relative="1" as="geometry">
            <mxPoint x="170" y="3740" as="sourcePoint" />
            <mxPoint x="220" y="3690" as="targetPoint" />
          </mxGeometry>
        </mxCell>
        <mxCell id="KpjEV-Iwp159X810K0ua-154" value="" style="endArrow=classic;html=1;rounded=0;entryX=0.41;entryY=1.061;entryDx=0;entryDy=0;entryPerimeter=0;" parent="1" target="KpjEV-Iwp159X810K0ua-148" edge="1">
          <mxGeometry width="50" height="50" relative="1" as="geometry">
            <mxPoint x="240" y="3760" as="sourcePoint" />
            <mxPoint x="80" y="3760" as="targetPoint" />
          </mxGeometry>
        </mxCell>
        <mxCell id="KpjEV-Iwp159X810K0ua-155" value="" style="endArrow=classic;html=1;rounded=0;exitX=1;exitY=0.5;exitDx=0;exitDy=0;entryX=-0.065;entryY=0.486;entryDx=0;entryDy=0;entryPerimeter=0;" parent="1" source="KpjEV-Iwp159X810K0ua-150" target="KpjEV-Iwp159X810K0ua-149" edge="1">
          <mxGeometry width="50" height="50" relative="1" as="geometry">
            <mxPoint x="380" y="3680" as="sourcePoint" />
            <mxPoint x="430" y="3630" as="targetPoint" />
          </mxGeometry>
        </mxCell>
        <mxCell id="KpjEV-Iwp159X810K0ua-156" value="Xóa tài khoản" style="rounded=0;whiteSpace=wrap;html=1;" parent="1" vertex="1">
          <mxGeometry x="575" y="3655" width="135" height="30" as="geometry" />
        </mxCell>
        <mxCell id="KpjEV-Iwp159X810K0ua-157" value="" style="endArrow=classic;html=1;rounded=0;" parent="1" source="KpjEV-Iwp159X810K0ua-149" edge="1">
          <mxGeometry width="50" height="50" relative="1" as="geometry">
            <mxPoint x="510" y="3720" as="sourcePoint" />
            <mxPoint x="580.7106781186548" y="3670" as="targetPoint" />
          </mxGeometry>
        </mxCell>
        <mxCell id="KpjEV-Iwp159X810K0ua-158" value="" style="ellipse;html=1;shape=endState;fillColor=#000000;strokeColor=#ff0000;" parent="1" vertex="1">
          <mxGeometry x="627.5" y="3740" width="30" height="30" as="geometry" />
        </mxCell>
        <mxCell id="KpjEV-Iwp159X810K0ua-159" value="" style="endArrow=classic;html=1;rounded=0;exitX=0.5;exitY=1;exitDx=0;exitDy=0;entryX=0.5;entryY=0;entryDx=0;entryDy=0;" parent="1" source="KpjEV-Iwp159X810K0ua-156" target="KpjEV-Iwp159X810K0ua-158" edge="1">
          <mxGeometry width="50" height="50" relative="1" as="geometry">
            <mxPoint x="530" y="3750" as="sourcePoint" />
            <mxPoint x="580" y="3700" as="targetPoint" />
          </mxGeometry>
        </mxCell>
        <mxCell id="KpjEV-Iwp159X810K0ua-160" value="&lt;font style=&quot;font-size: 20px;&quot;&gt;&lt;b&gt;Sơ đồ hoạt động module xóa tài khoản&lt;/b&gt;&lt;/font&gt;" style="text;html=1;align=center;verticalAlign=middle;whiteSpace=wrap;rounded=0;" parent="1" vertex="1">
          <mxGeometry x="100" y="3820" width="580" height="30" as="geometry" />
        </mxCell>
        <mxCell id="HN-Yl8j-tI1Sv_fIHTbO-1" value="" style="endArrow=classic;html=1;rounded=0;entryX=0.5;entryY=0;entryDx=0;entryDy=0;exitX=0.5;exitY=1;exitDx=0;exitDy=0;" parent="1" source="KpjEV-Iwp159X810K0ua-72" target="KpjEV-Iwp159X810K0ua-93" edge="1">
          <mxGeometry width="50" height="50" relative="1" as="geometry">
            <mxPoint x="720" y="1970" as="sourcePoint" />
            <mxPoint x="670" y="2020" as="targetPoint" />
          </mxGeometry>
        </mxCell>
        <mxCell id="HN-Yl8j-tI1Sv_fIHTbO-3" value="Xóa đơn đặt món" style="rounded=0;whiteSpace=wrap;html=1;" parent="1" vertex="1">
          <mxGeometry x="337.5" y="2140" width="120" height="60" as="geometry" />
        </mxCell>
        <mxCell id="HN-Yl8j-tI1Sv_fIHTbO-5" value="" style="endArrow=classic;html=1;rounded=0;entryX=0;entryY=0.5;entryDx=0;entryDy=0;" parent="1" target="HN-Yl8j-tI1Sv_fIHTbO-3" edge="1">
          <mxGeometry width="50" height="50" relative="1" as="geometry">
            <mxPoint x="300" y="2170" as="sourcePoint" />
            <mxPoint x="330" y="2170" as="targetPoint" />
          </mxGeometry>
        </mxCell>
        <mxCell id="F_a6GWX4qRvjYblZ2KUZ-1" value="" style="ellipse;html=1;shape=startState;fillColor=#000000;strokeColor=#ff0000;" vertex="1" parent="1">
          <mxGeometry x="1190" y="2810" width="30" height="30" as="geometry" />
        </mxCell>
        <mxCell id="F_a6GWX4qRvjYblZ2KUZ-2" value="" style="edgeStyle=orthogonalEdgeStyle;html=1;verticalAlign=bottom;endArrow=open;endSize=8;strokeColor=#ff0000;rounded=0;" edge="1" parent="1" source="F_a6GWX4qRvjYblZ2KUZ-1">
          <mxGeometry relative="1" as="geometry">
            <mxPoint x="1205" y="2880" as="targetPoint" />
          </mxGeometry>
        </mxCell>
        <mxCell id="F_a6GWX4qRvjYblZ2KUZ-3" value="Nhập thông tin bàn" style="rounded=0;whiteSpace=wrap;html=1;" vertex="1" parent="1">
          <mxGeometry x="1150" y="2880" width="120" height="40" as="geometry" />
        </mxCell>
        <mxCell id="F_a6GWX4qRvjYblZ2KUZ-4" value="Hợp lệ" style="rounded=0;whiteSpace=wrap;html=1;" vertex="1" parent="1">
          <mxGeometry x="1560" y="2885" width="70" height="30" as="geometry" />
        </mxCell>
        <mxCell id="F_a6GWX4qRvjYblZ2KUZ-5" value="Kiểm tra tính hợp lệ" style="rhombus;whiteSpace=wrap;html=1;" vertex="1" parent="1">
          <mxGeometry x="1340" y="2870" width="140" height="60" as="geometry" />
        </mxCell>
        <mxCell id="F_a6GWX4qRvjYblZ2KUZ-6" value="" style="endArrow=classic;html=1;rounded=0;exitX=1;exitY=0.5;exitDx=0;exitDy=0;entryX=0;entryY=0.5;entryDx=0;entryDy=0;" edge="1" parent="1" source="F_a6GWX4qRvjYblZ2KUZ-3" target="F_a6GWX4qRvjYblZ2KUZ-5">
          <mxGeometry width="50" height="50" relative="1" as="geometry">
            <mxPoint x="1270" y="2920" as="sourcePoint" />
            <mxPoint x="1320" y="2870" as="targetPoint" />
          </mxGeometry>
        </mxCell>
        <mxCell id="F_a6GWX4qRvjYblZ2KUZ-7" value="Không hợp lệ" style="rounded=0;whiteSpace=wrap;html=1;" vertex="1" parent="1">
          <mxGeometry x="1362.5" y="2980" width="95" height="30" as="geometry" />
        </mxCell>
        <mxCell id="F_a6GWX4qRvjYblZ2KUZ-8" value="" style="endArrow=classic;html=1;rounded=0;exitX=0.5;exitY=1;exitDx=0;exitDy=0;entryX=0.5;entryY=0;entryDx=0;entryDy=0;" edge="1" parent="1" source="F_a6GWX4qRvjYblZ2KUZ-5" target="F_a6GWX4qRvjYblZ2KUZ-7">
          <mxGeometry width="50" height="50" relative="1" as="geometry">
            <mxPoint x="1290" y="2970" as="sourcePoint" />
            <mxPoint x="1340" y="2920" as="targetPoint" />
          </mxGeometry>
        </mxCell>
        <mxCell id="F_a6GWX4qRvjYblZ2KUZ-9" value="" style="endArrow=classic;html=1;rounded=0;entryX=0.41;entryY=1.061;entryDx=0;entryDy=0;entryPerimeter=0;" edge="1" parent="1" target="F_a6GWX4qRvjYblZ2KUZ-3">
          <mxGeometry width="50" height="50" relative="1" as="geometry">
            <mxPoint x="1360" y="2990" as="sourcePoint" />
            <mxPoint x="1200" y="2990" as="targetPoint" />
          </mxGeometry>
        </mxCell>
        <mxCell id="F_a6GWX4qRvjYblZ2KUZ-10" value="" style="endArrow=classic;html=1;rounded=0;exitX=1;exitY=0.5;exitDx=0;exitDy=0;entryX=-0.065;entryY=0.486;entryDx=0;entryDy=0;entryPerimeter=0;" edge="1" parent="1" source="F_a6GWX4qRvjYblZ2KUZ-5" target="F_a6GWX4qRvjYblZ2KUZ-4">
          <mxGeometry width="50" height="50" relative="1" as="geometry">
            <mxPoint x="1500" y="2910" as="sourcePoint" />
            <mxPoint x="1550" y="2860" as="targetPoint" />
          </mxGeometry>
        </mxCell>
        <mxCell id="F_a6GWX4qRvjYblZ2KUZ-11" value="Tạo bàn" style="rounded=0;whiteSpace=wrap;html=1;" vertex="1" parent="1">
          <mxGeometry x="1695" y="2885" width="80" height="30" as="geometry" />
        </mxCell>
        <mxCell id="F_a6GWX4qRvjYblZ2KUZ-12" value="" style="endArrow=classic;html=1;rounded=0;" edge="1" parent="1" source="F_a6GWX4qRvjYblZ2KUZ-4">
          <mxGeometry width="50" height="50" relative="1" as="geometry">
            <mxPoint x="1630" y="2950" as="sourcePoint" />
            <mxPoint x="1700.7106781186549" y="2900" as="targetPoint" />
          </mxGeometry>
        </mxCell>
        <mxCell id="F_a6GWX4qRvjYblZ2KUZ-13" value="" style="ellipse;html=1;shape=endState;fillColor=#000000;strokeColor=#ff0000;" vertex="1" parent="1">
          <mxGeometry x="1720" y="2960" width="30" height="30" as="geometry" />
        </mxCell>
        <mxCell id="F_a6GWX4qRvjYblZ2KUZ-14" value="" style="endArrow=classic;html=1;rounded=0;exitX=0.5;exitY=1;exitDx=0;exitDy=0;entryX=0.5;entryY=0;entryDx=0;entryDy=0;" edge="1" parent="1" source="F_a6GWX4qRvjYblZ2KUZ-11" target="F_a6GWX4qRvjYblZ2KUZ-13">
          <mxGeometry width="50" height="50" relative="1" as="geometry">
            <mxPoint x="1650" y="2980" as="sourcePoint" />
            <mxPoint x="1700" y="2930" as="targetPoint" />
          </mxGeometry>
        </mxCell>
        <mxCell id="F_a6GWX4qRvjYblZ2KUZ-15" value="&lt;font style=&quot;font-size: 20px;&quot;&gt;&lt;b&gt;Sơ đồ hoạt động module tạo bàn&lt;/b&gt;&lt;/font&gt;" style="text;html=1;align=center;verticalAlign=middle;whiteSpace=wrap;rounded=0;" vertex="1" parent="1">
          <mxGeometry x="1220" y="3050" width="580" height="30" as="geometry" />
        </mxCell>
        <mxCell id="F_a6GWX4qRvjYblZ2KUZ-16" value="" style="ellipse;html=1;shape=startState;fillColor=#000000;strokeColor=#ff0000;" vertex="1" parent="1">
          <mxGeometry x="1200" y="3190" width="30" height="30" as="geometry" />
        </mxCell>
        <mxCell id="F_a6GWX4qRvjYblZ2KUZ-17" value="" style="edgeStyle=orthogonalEdgeStyle;html=1;verticalAlign=bottom;endArrow=open;endSize=8;strokeColor=#ff0000;rounded=0;" edge="1" parent="1" source="F_a6GWX4qRvjYblZ2KUZ-16">
          <mxGeometry relative="1" as="geometry">
            <mxPoint x="1215" y="3260" as="targetPoint" />
          </mxGeometry>
        </mxCell>
        <mxCell id="F_a6GWX4qRvjYblZ2KUZ-18" value="Nhập thông tin bàn" style="rounded=0;whiteSpace=wrap;html=1;" vertex="1" parent="1">
          <mxGeometry x="1160" y="3260" width="120" height="40" as="geometry" />
        </mxCell>
        <mxCell id="F_a6GWX4qRvjYblZ2KUZ-19" value="Hợp lệ" style="rounded=0;whiteSpace=wrap;html=1;" vertex="1" parent="1">
          <mxGeometry x="1570" y="3265" width="70" height="30" as="geometry" />
        </mxCell>
        <mxCell id="F_a6GWX4qRvjYblZ2KUZ-20" value="Kiểm tra tính hợp lệ" style="rhombus;whiteSpace=wrap;html=1;" vertex="1" parent="1">
          <mxGeometry x="1350" y="3250" width="140" height="60" as="geometry" />
        </mxCell>
        <mxCell id="F_a6GWX4qRvjYblZ2KUZ-21" value="" style="endArrow=classic;html=1;rounded=0;exitX=1;exitY=0.5;exitDx=0;exitDy=0;entryX=0;entryY=0.5;entryDx=0;entryDy=0;" edge="1" parent="1" source="F_a6GWX4qRvjYblZ2KUZ-18" target="F_a6GWX4qRvjYblZ2KUZ-20">
          <mxGeometry width="50" height="50" relative="1" as="geometry">
            <mxPoint x="1280" y="3300" as="sourcePoint" />
            <mxPoint x="1330" y="3250" as="targetPoint" />
          </mxGeometry>
        </mxCell>
        <mxCell id="F_a6GWX4qRvjYblZ2KUZ-22" value="Không hợp lệ" style="rounded=0;whiteSpace=wrap;html=1;" vertex="1" parent="1">
          <mxGeometry x="1372.5" y="3360" width="95" height="30" as="geometry" />
        </mxCell>
        <mxCell id="F_a6GWX4qRvjYblZ2KUZ-23" value="" style="endArrow=classic;html=1;rounded=0;exitX=0.5;exitY=1;exitDx=0;exitDy=0;entryX=0.5;entryY=0;entryDx=0;entryDy=0;" edge="1" parent="1" source="F_a6GWX4qRvjYblZ2KUZ-20" target="F_a6GWX4qRvjYblZ2KUZ-22">
          <mxGeometry width="50" height="50" relative="1" as="geometry">
            <mxPoint x="1300" y="3350" as="sourcePoint" />
            <mxPoint x="1350" y="3300" as="targetPoint" />
          </mxGeometry>
        </mxCell>
        <mxCell id="F_a6GWX4qRvjYblZ2KUZ-24" value="" style="endArrow=classic;html=1;rounded=0;entryX=0.41;entryY=1.061;entryDx=0;entryDy=0;entryPerimeter=0;" edge="1" parent="1" target="F_a6GWX4qRvjYblZ2KUZ-18">
          <mxGeometry width="50" height="50" relative="1" as="geometry">
            <mxPoint x="1370" y="3370" as="sourcePoint" />
            <mxPoint x="1210" y="3370" as="targetPoint" />
          </mxGeometry>
        </mxCell>
        <mxCell id="F_a6GWX4qRvjYblZ2KUZ-25" value="" style="endArrow=classic;html=1;rounded=0;exitX=1;exitY=0.5;exitDx=0;exitDy=0;entryX=-0.065;entryY=0.486;entryDx=0;entryDy=0;entryPerimeter=0;" edge="1" parent="1" source="F_a6GWX4qRvjYblZ2KUZ-20" target="F_a6GWX4qRvjYblZ2KUZ-19">
          <mxGeometry width="50" height="50" relative="1" as="geometry">
            <mxPoint x="1510" y="3290" as="sourcePoint" />
            <mxPoint x="1560" y="3240" as="targetPoint" />
          </mxGeometry>
        </mxCell>
        <mxCell id="F_a6GWX4qRvjYblZ2KUZ-26" value="Chỉnh sửa thông tin bàn" style="rounded=0;whiteSpace=wrap;html=1;" vertex="1" parent="1">
          <mxGeometry x="1705" y="3265" width="135" height="30" as="geometry" />
        </mxCell>
        <mxCell id="F_a6GWX4qRvjYblZ2KUZ-27" value="" style="endArrow=classic;html=1;rounded=0;" edge="1" parent="1" source="F_a6GWX4qRvjYblZ2KUZ-19">
          <mxGeometry width="50" height="50" relative="1" as="geometry">
            <mxPoint x="1640" y="3330" as="sourcePoint" />
            <mxPoint x="1710.7106781186549" y="3280" as="targetPoint" />
          </mxGeometry>
        </mxCell>
        <mxCell id="F_a6GWX4qRvjYblZ2KUZ-28" value="" style="ellipse;html=1;shape=endState;fillColor=#000000;strokeColor=#ff0000;" vertex="1" parent="1">
          <mxGeometry x="1757.5" y="3350" width="30" height="30" as="geometry" />
        </mxCell>
        <mxCell id="F_a6GWX4qRvjYblZ2KUZ-29" value="" style="endArrow=classic;html=1;rounded=0;exitX=0.5;exitY=1;exitDx=0;exitDy=0;entryX=0.5;entryY=0;entryDx=0;entryDy=0;" edge="1" parent="1" source="F_a6GWX4qRvjYblZ2KUZ-26" target="F_a6GWX4qRvjYblZ2KUZ-28">
          <mxGeometry width="50" height="50" relative="1" as="geometry">
            <mxPoint x="1660" y="3360" as="sourcePoint" />
            <mxPoint x="1710" y="3310" as="targetPoint" />
          </mxGeometry>
        </mxCell>
        <mxCell id="F_a6GWX4qRvjYblZ2KUZ-30" value="&lt;font style=&quot;font-size: 20px;&quot;&gt;&lt;b&gt;Sơ đồ hoạt động module chỉnh sửa thông tin bàn&lt;/b&gt;&lt;/font&gt;" style="text;html=1;align=center;verticalAlign=middle;whiteSpace=wrap;rounded=0;" vertex="1" parent="1">
          <mxGeometry x="1230" y="3430" width="580" height="30" as="geometry" />
        </mxCell>
        <mxCell id="F_a6GWX4qRvjYblZ2KUZ-31" value="" style="ellipse;html=1;shape=startState;fillColor=#000000;strokeColor=#ff0000;" vertex="1" parent="1">
          <mxGeometry x="1190" y="3580" width="30" height="30" as="geometry" />
        </mxCell>
        <mxCell id="F_a6GWX4qRvjYblZ2KUZ-32" value="" style="edgeStyle=orthogonalEdgeStyle;html=1;verticalAlign=bottom;endArrow=open;endSize=8;strokeColor=#ff0000;rounded=0;" edge="1" parent="1" source="F_a6GWX4qRvjYblZ2KUZ-31">
          <mxGeometry relative="1" as="geometry">
            <mxPoint x="1205" y="3650" as="targetPoint" />
          </mxGeometry>
        </mxCell>
        <mxCell id="F_a6GWX4qRvjYblZ2KUZ-33" value="Chọn bàn" style="rounded=0;whiteSpace=wrap;html=1;" vertex="1" parent="1">
          <mxGeometry x="1150" y="3650" width="120" height="40" as="geometry" />
        </mxCell>
        <mxCell id="F_a6GWX4qRvjYblZ2KUZ-34" value="Xóa" style="rounded=0;whiteSpace=wrap;html=1;" vertex="1" parent="1">
          <mxGeometry x="1560" y="3655" width="70" height="30" as="geometry" />
        </mxCell>
        <mxCell id="F_a6GWX4qRvjYblZ2KUZ-35" value="Xác nhận" style="rhombus;whiteSpace=wrap;html=1;" vertex="1" parent="1">
          <mxGeometry x="1340" y="3640" width="140" height="60" as="geometry" />
        </mxCell>
        <mxCell id="F_a6GWX4qRvjYblZ2KUZ-36" value="" style="endArrow=classic;html=1;rounded=0;exitX=1;exitY=0.5;exitDx=0;exitDy=0;entryX=0;entryY=0.5;entryDx=0;entryDy=0;" edge="1" parent="1" source="F_a6GWX4qRvjYblZ2KUZ-33" target="F_a6GWX4qRvjYblZ2KUZ-35">
          <mxGeometry width="50" height="50" relative="1" as="geometry">
            <mxPoint x="1270" y="3690" as="sourcePoint" />
            <mxPoint x="1320" y="3640" as="targetPoint" />
          </mxGeometry>
        </mxCell>
        <mxCell id="F_a6GWX4qRvjYblZ2KUZ-37" value="Hủy" style="rounded=0;whiteSpace=wrap;html=1;" vertex="1" parent="1">
          <mxGeometry x="1362.5" y="3750" width="95" height="30" as="geometry" />
        </mxCell>
        <mxCell id="F_a6GWX4qRvjYblZ2KUZ-38" value="" style="endArrow=classic;html=1;rounded=0;exitX=0.5;exitY=1;exitDx=0;exitDy=0;entryX=0.5;entryY=0;entryDx=0;entryDy=0;" edge="1" parent="1" source="F_a6GWX4qRvjYblZ2KUZ-35" target="F_a6GWX4qRvjYblZ2KUZ-37">
          <mxGeometry width="50" height="50" relative="1" as="geometry">
            <mxPoint x="1290" y="3740" as="sourcePoint" />
            <mxPoint x="1340" y="3690" as="targetPoint" />
          </mxGeometry>
        </mxCell>
        <mxCell id="F_a6GWX4qRvjYblZ2KUZ-39" value="" style="endArrow=classic;html=1;rounded=0;entryX=0.41;entryY=1.061;entryDx=0;entryDy=0;entryPerimeter=0;" edge="1" parent="1" target="F_a6GWX4qRvjYblZ2KUZ-33">
          <mxGeometry width="50" height="50" relative="1" as="geometry">
            <mxPoint x="1360" y="3760" as="sourcePoint" />
            <mxPoint x="1200" y="3760" as="targetPoint" />
          </mxGeometry>
        </mxCell>
        <mxCell id="F_a6GWX4qRvjYblZ2KUZ-40" value="" style="endArrow=classic;html=1;rounded=0;exitX=1;exitY=0.5;exitDx=0;exitDy=0;entryX=-0.065;entryY=0.486;entryDx=0;entryDy=0;entryPerimeter=0;" edge="1" parent="1" source="F_a6GWX4qRvjYblZ2KUZ-35" target="F_a6GWX4qRvjYblZ2KUZ-34">
          <mxGeometry width="50" height="50" relative="1" as="geometry">
            <mxPoint x="1500" y="3680" as="sourcePoint" />
            <mxPoint x="1550" y="3630" as="targetPoint" />
          </mxGeometry>
        </mxCell>
        <mxCell id="F_a6GWX4qRvjYblZ2KUZ-41" value="Xóa bàn" style="rounded=0;whiteSpace=wrap;html=1;" vertex="1" parent="1">
          <mxGeometry x="1695" y="3655" width="135" height="30" as="geometry" />
        </mxCell>
        <mxCell id="F_a6GWX4qRvjYblZ2KUZ-42" value="" style="endArrow=classic;html=1;rounded=0;" edge="1" parent="1" source="F_a6GWX4qRvjYblZ2KUZ-34">
          <mxGeometry width="50" height="50" relative="1" as="geometry">
            <mxPoint x="1630" y="3720" as="sourcePoint" />
            <mxPoint x="1700.7106781186549" y="3670" as="targetPoint" />
          </mxGeometry>
        </mxCell>
        <mxCell id="F_a6GWX4qRvjYblZ2KUZ-43" value="" style="ellipse;html=1;shape=endState;fillColor=#000000;strokeColor=#ff0000;" vertex="1" parent="1">
          <mxGeometry x="1747.5" y="3740" width="30" height="30" as="geometry" />
        </mxCell>
        <mxCell id="F_a6GWX4qRvjYblZ2KUZ-44" value="" style="endArrow=classic;html=1;rounded=0;exitX=0.5;exitY=1;exitDx=0;exitDy=0;entryX=0.5;entryY=0;entryDx=0;entryDy=0;" edge="1" parent="1" source="F_a6GWX4qRvjYblZ2KUZ-41" target="F_a6GWX4qRvjYblZ2KUZ-43">
          <mxGeometry width="50" height="50" relative="1" as="geometry">
            <mxPoint x="1650" y="3750" as="sourcePoint" />
            <mxPoint x="1700" y="3700" as="targetPoint" />
          </mxGeometry>
        </mxCell>
        <mxCell id="F_a6GWX4qRvjYblZ2KUZ-45" value="&lt;font style=&quot;font-size: 20px;&quot;&gt;&lt;b&gt;Sơ đồ hoạt động module xóa bàn&lt;/b&gt;&lt;/font&gt;" style="text;html=1;align=center;verticalAlign=middle;whiteSpace=wrap;rounded=0;" vertex="1" parent="1">
          <mxGeometry x="1220" y="3820" width="580" height="30" as="geometry" />
        </mxCell>
        <mxCell id="F_a6GWX4qRvjYblZ2KUZ-46" value="" style="ellipse;html=1;shape=startState;fillColor=#000000;strokeColor=#ff0000;" vertex="1" parent="1">
          <mxGeometry x="110" y="4100" width="30" height="30" as="geometry" />
        </mxCell>
        <mxCell id="F_a6GWX4qRvjYblZ2KUZ-47" value="" style="edgeStyle=orthogonalEdgeStyle;html=1;verticalAlign=bottom;endArrow=open;endSize=8;strokeColor=#ff0000;rounded=0;" edge="1" parent="1" source="F_a6GWX4qRvjYblZ2KUZ-46">
          <mxGeometry relative="1" as="geometry">
            <mxPoint x="125" y="4170" as="targetPoint" />
          </mxGeometry>
        </mxCell>
        <mxCell id="F_a6GWX4qRvjYblZ2KUZ-48" value="Nhập thông tin hóa đơn" style="rounded=0;whiteSpace=wrap;html=1;" vertex="1" parent="1">
          <mxGeometry x="70" y="4170" width="120" height="40" as="geometry" />
        </mxCell>
        <mxCell id="F_a6GWX4qRvjYblZ2KUZ-49" value="Hợp lệ" style="rounded=0;whiteSpace=wrap;html=1;" vertex="1" parent="1">
          <mxGeometry x="480" y="4175" width="70" height="30" as="geometry" />
        </mxCell>
        <mxCell id="F_a6GWX4qRvjYblZ2KUZ-50" value="Kiểm tra tính hợp lệ" style="rhombus;whiteSpace=wrap;html=1;" vertex="1" parent="1">
          <mxGeometry x="260" y="4160" width="140" height="60" as="geometry" />
        </mxCell>
        <mxCell id="F_a6GWX4qRvjYblZ2KUZ-51" value="" style="endArrow=classic;html=1;rounded=0;exitX=1;exitY=0.5;exitDx=0;exitDy=0;entryX=0;entryY=0.5;entryDx=0;entryDy=0;" edge="1" parent="1" source="F_a6GWX4qRvjYblZ2KUZ-48" target="F_a6GWX4qRvjYblZ2KUZ-50">
          <mxGeometry width="50" height="50" relative="1" as="geometry">
            <mxPoint x="190" y="4210" as="sourcePoint" />
            <mxPoint x="240" y="4160" as="targetPoint" />
          </mxGeometry>
        </mxCell>
        <mxCell id="F_a6GWX4qRvjYblZ2KUZ-52" value="Không hợp lệ" style="rounded=0;whiteSpace=wrap;html=1;" vertex="1" parent="1">
          <mxGeometry x="282.5" y="4270" width="95" height="30" as="geometry" />
        </mxCell>
        <mxCell id="F_a6GWX4qRvjYblZ2KUZ-53" value="" style="endArrow=classic;html=1;rounded=0;exitX=0.5;exitY=1;exitDx=0;exitDy=0;entryX=0.5;entryY=0;entryDx=0;entryDy=0;" edge="1" parent="1" source="F_a6GWX4qRvjYblZ2KUZ-50" target="F_a6GWX4qRvjYblZ2KUZ-52">
          <mxGeometry width="50" height="50" relative="1" as="geometry">
            <mxPoint x="210" y="4260" as="sourcePoint" />
            <mxPoint x="260" y="4210" as="targetPoint" />
          </mxGeometry>
        </mxCell>
        <mxCell id="F_a6GWX4qRvjYblZ2KUZ-54" value="" style="endArrow=classic;html=1;rounded=0;entryX=0.41;entryY=1.061;entryDx=0;entryDy=0;entryPerimeter=0;" edge="1" parent="1" target="F_a6GWX4qRvjYblZ2KUZ-48">
          <mxGeometry width="50" height="50" relative="1" as="geometry">
            <mxPoint x="280" y="4280" as="sourcePoint" />
            <mxPoint x="120" y="4280" as="targetPoint" />
          </mxGeometry>
        </mxCell>
        <mxCell id="F_a6GWX4qRvjYblZ2KUZ-55" value="" style="endArrow=classic;html=1;rounded=0;exitX=1;exitY=0.5;exitDx=0;exitDy=0;entryX=-0.065;entryY=0.486;entryDx=0;entryDy=0;entryPerimeter=0;" edge="1" parent="1" source="F_a6GWX4qRvjYblZ2KUZ-50" target="F_a6GWX4qRvjYblZ2KUZ-49">
          <mxGeometry width="50" height="50" relative="1" as="geometry">
            <mxPoint x="420" y="4200" as="sourcePoint" />
            <mxPoint x="470" y="4150" as="targetPoint" />
          </mxGeometry>
        </mxCell>
        <mxCell id="F_a6GWX4qRvjYblZ2KUZ-56" value="Tạo hóa đơn" style="rounded=0;whiteSpace=wrap;html=1;" vertex="1" parent="1">
          <mxGeometry x="615" y="4175" width="80" height="30" as="geometry" />
        </mxCell>
        <mxCell id="F_a6GWX4qRvjYblZ2KUZ-57" value="" style="endArrow=classic;html=1;rounded=0;" edge="1" parent="1" source="F_a6GWX4qRvjYblZ2KUZ-49">
          <mxGeometry width="50" height="50" relative="1" as="geometry">
            <mxPoint x="550" y="4240" as="sourcePoint" />
            <mxPoint x="620.7106781186548" y="4190" as="targetPoint" />
          </mxGeometry>
        </mxCell>
        <mxCell id="F_a6GWX4qRvjYblZ2KUZ-58" value="" style="ellipse;html=1;shape=endState;fillColor=#000000;strokeColor=#ff0000;" vertex="1" parent="1">
          <mxGeometry x="640" y="4250" width="30" height="30" as="geometry" />
        </mxCell>
        <mxCell id="F_a6GWX4qRvjYblZ2KUZ-59" value="" style="endArrow=classic;html=1;rounded=0;exitX=0.5;exitY=1;exitDx=0;exitDy=0;entryX=0.5;entryY=0;entryDx=0;entryDy=0;" edge="1" parent="1" source="F_a6GWX4qRvjYblZ2KUZ-56" target="F_a6GWX4qRvjYblZ2KUZ-58">
          <mxGeometry width="50" height="50" relative="1" as="geometry">
            <mxPoint x="570" y="4270" as="sourcePoint" />
            <mxPoint x="620" y="4220" as="targetPoint" />
          </mxGeometry>
        </mxCell>
        <mxCell id="F_a6GWX4qRvjYblZ2KUZ-60" value="&lt;font style=&quot;font-size: 20px;&quot;&gt;&lt;b&gt;Sơ đồ hoạt động module tạo hóa đơn&lt;/b&gt;&lt;/font&gt;" style="text;html=1;align=center;verticalAlign=middle;whiteSpace=wrap;rounded=0;" vertex="1" parent="1">
          <mxGeometry x="140" y="4340" width="580" height="30" as="geometry" />
        </mxCell>
        <mxCell id="F_a6GWX4qRvjYblZ2KUZ-61" value="" style="ellipse;html=1;shape=startState;fillColor=#000000;strokeColor=#ff0000;" vertex="1" parent="1">
          <mxGeometry x="120" y="4480" width="30" height="30" as="geometry" />
        </mxCell>
        <mxCell id="F_a6GWX4qRvjYblZ2KUZ-62" value="" style="edgeStyle=orthogonalEdgeStyle;html=1;verticalAlign=bottom;endArrow=open;endSize=8;strokeColor=#ff0000;rounded=0;" edge="1" parent="1" source="F_a6GWX4qRvjYblZ2KUZ-61">
          <mxGeometry relative="1" as="geometry">
            <mxPoint x="135" y="4550" as="targetPoint" />
          </mxGeometry>
        </mxCell>
        <mxCell id="F_a6GWX4qRvjYblZ2KUZ-63" value="Nhập thông tin hóa đơn" style="rounded=0;whiteSpace=wrap;html=1;" vertex="1" parent="1">
          <mxGeometry x="80" y="4550" width="120" height="40" as="geometry" />
        </mxCell>
        <mxCell id="F_a6GWX4qRvjYblZ2KUZ-64" value="Hợp lệ" style="rounded=0;whiteSpace=wrap;html=1;" vertex="1" parent="1">
          <mxGeometry x="490" y="4555" width="70" height="30" as="geometry" />
        </mxCell>
        <mxCell id="F_a6GWX4qRvjYblZ2KUZ-65" value="Kiểm tra tính hợp lệ" style="rhombus;whiteSpace=wrap;html=1;" vertex="1" parent="1">
          <mxGeometry x="270" y="4540" width="140" height="60" as="geometry" />
        </mxCell>
        <mxCell id="F_a6GWX4qRvjYblZ2KUZ-66" value="" style="endArrow=classic;html=1;rounded=0;exitX=1;exitY=0.5;exitDx=0;exitDy=0;entryX=0;entryY=0.5;entryDx=0;entryDy=0;" edge="1" parent="1" source="F_a6GWX4qRvjYblZ2KUZ-63" target="F_a6GWX4qRvjYblZ2KUZ-65">
          <mxGeometry width="50" height="50" relative="1" as="geometry">
            <mxPoint x="200" y="4590" as="sourcePoint" />
            <mxPoint x="250" y="4540" as="targetPoint" />
          </mxGeometry>
        </mxCell>
        <mxCell id="F_a6GWX4qRvjYblZ2KUZ-67" value="Không hợp lệ" style="rounded=0;whiteSpace=wrap;html=1;" vertex="1" parent="1">
          <mxGeometry x="292.5" y="4650" width="95" height="30" as="geometry" />
        </mxCell>
        <mxCell id="F_a6GWX4qRvjYblZ2KUZ-68" value="" style="endArrow=classic;html=1;rounded=0;exitX=0.5;exitY=1;exitDx=0;exitDy=0;entryX=0.5;entryY=0;entryDx=0;entryDy=0;" edge="1" parent="1" source="F_a6GWX4qRvjYblZ2KUZ-65" target="F_a6GWX4qRvjYblZ2KUZ-67">
          <mxGeometry width="50" height="50" relative="1" as="geometry">
            <mxPoint x="220" y="4640" as="sourcePoint" />
            <mxPoint x="270" y="4590" as="targetPoint" />
          </mxGeometry>
        </mxCell>
        <mxCell id="F_a6GWX4qRvjYblZ2KUZ-69" value="" style="endArrow=classic;html=1;rounded=0;entryX=0.41;entryY=1.061;entryDx=0;entryDy=0;entryPerimeter=0;" edge="1" parent="1" target="F_a6GWX4qRvjYblZ2KUZ-63">
          <mxGeometry width="50" height="50" relative="1" as="geometry">
            <mxPoint x="290" y="4660" as="sourcePoint" />
            <mxPoint x="130" y="4660" as="targetPoint" />
          </mxGeometry>
        </mxCell>
        <mxCell id="F_a6GWX4qRvjYblZ2KUZ-70" value="" style="endArrow=classic;html=1;rounded=0;exitX=1;exitY=0.5;exitDx=0;exitDy=0;entryX=-0.065;entryY=0.486;entryDx=0;entryDy=0;entryPerimeter=0;" edge="1" parent="1" source="F_a6GWX4qRvjYblZ2KUZ-65" target="F_a6GWX4qRvjYblZ2KUZ-64">
          <mxGeometry width="50" height="50" relative="1" as="geometry">
            <mxPoint x="430" y="4580" as="sourcePoint" />
            <mxPoint x="480" y="4530" as="targetPoint" />
          </mxGeometry>
        </mxCell>
        <mxCell id="F_a6GWX4qRvjYblZ2KUZ-71" value="Chỉnh sửa hóa đơn" style="rounded=0;whiteSpace=wrap;html=1;" vertex="1" parent="1">
          <mxGeometry x="625" y="4555" width="135" height="30" as="geometry" />
        </mxCell>
        <mxCell id="F_a6GWX4qRvjYblZ2KUZ-72" value="" style="endArrow=classic;html=1;rounded=0;" edge="1" parent="1" source="F_a6GWX4qRvjYblZ2KUZ-64">
          <mxGeometry width="50" height="50" relative="1" as="geometry">
            <mxPoint x="560" y="4620" as="sourcePoint" />
            <mxPoint x="630.7106781186548" y="4570" as="targetPoint" />
          </mxGeometry>
        </mxCell>
        <mxCell id="F_a6GWX4qRvjYblZ2KUZ-73" value="" style="ellipse;html=1;shape=endState;fillColor=#000000;strokeColor=#ff0000;" vertex="1" parent="1">
          <mxGeometry x="677.5" y="4640" width="30" height="30" as="geometry" />
        </mxCell>
        <mxCell id="F_a6GWX4qRvjYblZ2KUZ-74" value="" style="endArrow=classic;html=1;rounded=0;exitX=0.5;exitY=1;exitDx=0;exitDy=0;entryX=0.5;entryY=0;entryDx=0;entryDy=0;" edge="1" parent="1" source="F_a6GWX4qRvjYblZ2KUZ-71" target="F_a6GWX4qRvjYblZ2KUZ-73">
          <mxGeometry width="50" height="50" relative="1" as="geometry">
            <mxPoint x="580" y="4650" as="sourcePoint" />
            <mxPoint x="630" y="4600" as="targetPoint" />
          </mxGeometry>
        </mxCell>
        <mxCell id="F_a6GWX4qRvjYblZ2KUZ-75" value="&lt;font style=&quot;font-size: 20px;&quot;&gt;&lt;b&gt;Sơ đồ hoạt động module chỉnh sửa hóa đơn&lt;/b&gt;&lt;/font&gt;" style="text;html=1;align=center;verticalAlign=middle;whiteSpace=wrap;rounded=0;" vertex="1" parent="1">
          <mxGeometry x="150" y="4720" width="580" height="30" as="geometry" />
        </mxCell>
        <mxCell id="F_a6GWX4qRvjYblZ2KUZ-76" value="" style="ellipse;html=1;shape=startState;fillColor=#000000;strokeColor=#ff0000;" vertex="1" parent="1">
          <mxGeometry x="110" y="4870" width="30" height="30" as="geometry" />
        </mxCell>
        <mxCell id="F_a6GWX4qRvjYblZ2KUZ-77" value="" style="edgeStyle=orthogonalEdgeStyle;html=1;verticalAlign=bottom;endArrow=open;endSize=8;strokeColor=#ff0000;rounded=0;" edge="1" parent="1" source="F_a6GWX4qRvjYblZ2KUZ-76">
          <mxGeometry relative="1" as="geometry">
            <mxPoint x="125" y="4940" as="targetPoint" />
          </mxGeometry>
        </mxCell>
        <mxCell id="F_a6GWX4qRvjYblZ2KUZ-78" value="Chọn hóa đơn" style="rounded=0;whiteSpace=wrap;html=1;" vertex="1" parent="1">
          <mxGeometry x="70" y="4940" width="120" height="40" as="geometry" />
        </mxCell>
        <mxCell id="F_a6GWX4qRvjYblZ2KUZ-79" value="Xóa" style="rounded=0;whiteSpace=wrap;html=1;" vertex="1" parent="1">
          <mxGeometry x="480" y="4945" width="70" height="30" as="geometry" />
        </mxCell>
        <mxCell id="F_a6GWX4qRvjYblZ2KUZ-80" value="Xác nhận" style="rhombus;whiteSpace=wrap;html=1;" vertex="1" parent="1">
          <mxGeometry x="260" y="4930" width="140" height="60" as="geometry" />
        </mxCell>
        <mxCell id="F_a6GWX4qRvjYblZ2KUZ-81" value="" style="endArrow=classic;html=1;rounded=0;exitX=1;exitY=0.5;exitDx=0;exitDy=0;entryX=0;entryY=0.5;entryDx=0;entryDy=0;" edge="1" parent="1" source="F_a6GWX4qRvjYblZ2KUZ-78" target="F_a6GWX4qRvjYblZ2KUZ-80">
          <mxGeometry width="50" height="50" relative="1" as="geometry">
            <mxPoint x="190" y="4980" as="sourcePoint" />
            <mxPoint x="240" y="4930" as="targetPoint" />
          </mxGeometry>
        </mxCell>
        <mxCell id="F_a6GWX4qRvjYblZ2KUZ-82" value="Hủy" style="rounded=0;whiteSpace=wrap;html=1;" vertex="1" parent="1">
          <mxGeometry x="282.5" y="5040" width="95" height="30" as="geometry" />
        </mxCell>
        <mxCell id="F_a6GWX4qRvjYblZ2KUZ-83" value="" style="endArrow=classic;html=1;rounded=0;exitX=0.5;exitY=1;exitDx=0;exitDy=0;entryX=0.5;entryY=0;entryDx=0;entryDy=0;" edge="1" parent="1" source="F_a6GWX4qRvjYblZ2KUZ-80" target="F_a6GWX4qRvjYblZ2KUZ-82">
          <mxGeometry width="50" height="50" relative="1" as="geometry">
            <mxPoint x="210" y="5030" as="sourcePoint" />
            <mxPoint x="260" y="4980" as="targetPoint" />
          </mxGeometry>
        </mxCell>
        <mxCell id="F_a6GWX4qRvjYblZ2KUZ-84" value="" style="endArrow=classic;html=1;rounded=0;entryX=0.41;entryY=1.061;entryDx=0;entryDy=0;entryPerimeter=0;" edge="1" parent="1" target="F_a6GWX4qRvjYblZ2KUZ-78">
          <mxGeometry width="50" height="50" relative="1" as="geometry">
            <mxPoint x="280" y="5050" as="sourcePoint" />
            <mxPoint x="120" y="5050" as="targetPoint" />
          </mxGeometry>
        </mxCell>
        <mxCell id="F_a6GWX4qRvjYblZ2KUZ-85" value="" style="endArrow=classic;html=1;rounded=0;exitX=1;exitY=0.5;exitDx=0;exitDy=0;entryX=-0.065;entryY=0.486;entryDx=0;entryDy=0;entryPerimeter=0;" edge="1" parent="1" source="F_a6GWX4qRvjYblZ2KUZ-80" target="F_a6GWX4qRvjYblZ2KUZ-79">
          <mxGeometry width="50" height="50" relative="1" as="geometry">
            <mxPoint x="420" y="4970" as="sourcePoint" />
            <mxPoint x="470" y="4920" as="targetPoint" />
          </mxGeometry>
        </mxCell>
        <mxCell id="F_a6GWX4qRvjYblZ2KUZ-86" value="Xóa hóa đơn" style="rounded=0;whiteSpace=wrap;html=1;" vertex="1" parent="1">
          <mxGeometry x="615" y="4945" width="135" height="30" as="geometry" />
        </mxCell>
        <mxCell id="F_a6GWX4qRvjYblZ2KUZ-87" value="" style="endArrow=classic;html=1;rounded=0;" edge="1" parent="1" source="F_a6GWX4qRvjYblZ2KUZ-79">
          <mxGeometry width="50" height="50" relative="1" as="geometry">
            <mxPoint x="550" y="5010" as="sourcePoint" />
            <mxPoint x="620.7106781186548" y="4960" as="targetPoint" />
          </mxGeometry>
        </mxCell>
        <mxCell id="F_a6GWX4qRvjYblZ2KUZ-88" value="" style="ellipse;html=1;shape=endState;fillColor=#000000;strokeColor=#ff0000;" vertex="1" parent="1">
          <mxGeometry x="667.5" y="5030" width="30" height="30" as="geometry" />
        </mxCell>
        <mxCell id="F_a6GWX4qRvjYblZ2KUZ-89" value="" style="endArrow=classic;html=1;rounded=0;exitX=0.5;exitY=1;exitDx=0;exitDy=0;entryX=0.5;entryY=0;entryDx=0;entryDy=0;" edge="1" parent="1" source="F_a6GWX4qRvjYblZ2KUZ-86" target="F_a6GWX4qRvjYblZ2KUZ-88">
          <mxGeometry width="50" height="50" relative="1" as="geometry">
            <mxPoint x="570" y="5040" as="sourcePoint" />
            <mxPoint x="620" y="4990" as="targetPoint" />
          </mxGeometry>
        </mxCell>
        <mxCell id="F_a6GWX4qRvjYblZ2KUZ-90" value="&lt;font style=&quot;font-size: 20px;&quot;&gt;&lt;b&gt;Sơ đồ hoạt động module xóa hóa đơn&lt;/b&gt;&lt;/font&gt;" style="text;html=1;align=center;verticalAlign=middle;whiteSpace=wrap;rounded=0;" vertex="1" parent="1">
          <mxGeometry x="140" y="5110" width="580" height="30" as="geometry" />
        </mxCell>
      </root>
    </mxGraphModel>
  </diagram>
</mxfile>
